<svg width="534" height="400" viewBox="0 0 534 400" fill="none" xmlns="http://www.w3.org/2000/svg">
<g clip-path="url(#clip0_225_9)">
<path d="M510.803 371.357H108.983C102.871 371.35 97.0107 368.919 92.6887 364.597C88.3667 360.275 85.9356 354.415 85.9287 348.303V133.831C85.9356 127.719 88.3667 121.859 92.6887 117.537C97.0107 113.215 102.871 110.784 108.983 110.777H510.803C516.915 110.784 522.775 113.215 527.097 117.537C531.419 121.859 533.85 127.719 533.857 133.831V348.303C533.85 354.415 531.419 360.275 527.097 364.597C522.775 368.919 516.915 371.35 510.803 371.357V371.357Z" fill="white"/>
<path d="M510.803 371.357H108.983C102.871 371.35 97.0107 368.919 92.6887 364.597C88.3667 360.275 85.9356 354.415 85.9287 348.303V133.831C85.9356 127.719 88.3667 121.859 92.6887 117.537C97.0107 113.215 102.871 110.784 108.983 110.777H510.803C516.915 110.784 522.775 113.215 527.097 117.537C531.419 121.859 533.85 127.719 533.857 133.831V348.303C533.85 354.415 531.419 360.275 527.097 364.597C522.775 368.919 516.915 371.35 510.803 371.357V371.357ZM108.983 112.174C103.241 112.18 97.7363 114.464 93.6762 118.524C89.6162 122.584 87.3324 128.089 87.3259 133.831V348.303C87.3324 354.045 89.6162 359.55 93.6762 363.61C97.7363 367.67 103.241 369.953 108.983 369.96H510.803C516.544 369.953 522.049 367.67 526.109 363.61C530.169 359.55 532.453 354.045 532.459 348.303V133.831C532.453 128.089 530.169 122.584 526.109 118.524C522.049 114.464 516.544 112.18 510.803 112.174H108.983Z" fill="#F2F2F2"/>
<path d="M510.802 354.59H108.983C107.316 354.589 105.718 353.926 104.539 352.747C103.36 351.568 102.697 349.97 102.695 348.303V133.831C102.697 132.164 103.36 130.566 104.539 129.387C105.718 128.208 107.316 127.545 108.983 127.543H510.802C512.469 127.545 514.068 128.208 515.246 129.387C516.425 130.566 517.088 132.164 517.09 133.831V348.303C517.088 349.97 516.425 351.568 515.246 352.747C514.068 353.926 512.469 354.589 510.802 354.59V354.59ZM108.983 128.94C107.686 128.942 106.443 129.458 105.526 130.374C104.61 131.291 104.094 132.534 104.092 133.831V348.303C104.094 349.6 104.61 350.843 105.526 351.759C106.443 352.676 107.686 353.192 108.983 353.193H510.802C512.099 353.192 513.342 352.676 514.259 351.759C515.176 350.843 515.691 349.6 515.693 348.303V133.831C515.691 132.534 515.176 131.291 514.259 130.374C513.342 129.458 512.099 128.942 510.802 128.94H108.983Z" fill="#F2F2F2"/>
<path d="M408.535 355.612L20.1294 252.653C14.223 251.081 9.18172 247.229 6.11146 241.944C3.0412 236.659 2.19273 230.372 3.7522 224.462L58.7068 17.1495C60.2796 11.2431 64.1311 6.2018 69.4162 3.13154C74.7013 0.0612752 80.9885 -0.787189 86.8984 0.772288L475.304 103.731C481.21 105.304 486.251 109.156 489.322 114.441C492.392 119.726 493.24 126.013 491.681 131.923L436.726 339.235C435.153 345.141 431.302 350.183 426.017 353.253C420.732 356.323 414.445 357.172 408.535 355.612V355.612Z" fill="#F2F2F2"/>
<path d="M408.535 355.612L20.1294 252.653C14.223 251.081 9.18172 247.229 6.11146 241.944C3.0412 236.659 2.19273 230.372 3.7522 224.462L58.7068 17.1495C60.2796 11.2431 64.1311 6.2018 69.4162 3.13154C74.7013 0.0612752 80.9885 -0.787189 86.8984 0.772288L475.304 103.731C481.21 105.304 486.251 109.156 489.322 114.441C492.392 119.726 493.24 126.013 491.681 131.923L436.726 339.235C435.153 345.141 431.302 350.183 426.017 353.253C420.732 356.323 414.445 357.172 408.535 355.612V355.612ZM86.5404 2.12285C80.9886 0.657921 75.0825 1.45497 70.1177 4.33915C65.1529 7.22333 61.5349 11.9591 60.0574 17.5075L5.10278 224.82C3.63785 230.371 4.43491 236.278 7.31909 241.242C10.2033 246.207 14.939 249.825 20.4874 251.303L408.893 354.262C414.444 355.727 420.35 354.93 425.315 352.045C430.28 349.161 433.898 344.425 435.376 338.877L490.33 131.565C491.795 126.013 490.998 120.107 488.114 115.142C485.23 110.177 480.494 106.559 474.946 105.082L86.5404 2.12285Z" fill="#E6E6E6"/>
<path d="M412.831 339.405L24.4256 236.446C22.8147 236.017 21.4399 234.967 20.6025 233.526C19.7652 232.084 19.5338 230.37 19.9591 228.758L74.9137 21.4456C75.3426 19.8348 76.393 18.4599 77.8344 17.6225C79.2758 16.7852 80.9905 16.5538 82.6023 16.9791L471.007 119.938C472.618 120.367 473.993 121.417 474.831 122.859C475.668 124.3 475.899 126.015 475.474 127.627L420.519 334.939C420.09 336.55 419.04 337.925 417.599 338.762C416.157 339.599 414.443 339.831 412.831 339.405ZM82.2443 18.3297C80.9907 17.9988 79.657 18.1788 78.5359 18.8301C77.4148 19.4813 76.5979 20.5507 76.2642 21.8036L21.3096 229.116C20.9788 230.369 21.1588 231.703 21.8101 232.824C22.4613 233.945 23.5307 234.762 24.7836 235.096L413.189 338.055C414.442 338.386 415.776 338.206 416.897 337.554C418.018 336.903 418.835 335.834 419.169 334.581L474.123 127.269C474.454 126.015 474.274 124.681 473.623 123.56C472.972 122.439 471.902 121.622 470.649 121.289L82.2443 18.3297Z" fill="white"/>
<path d="M424.874 400H23.054C16.9418 399.993 11.082 397.562 6.76 393.24C2.43802 388.918 0.00690432 383.058 0 376.946V162.474C0.00690432 156.361 2.43802 150.502 6.76 146.18C11.082 141.858 16.9418 139.426 23.054 139.42H424.874C430.986 139.426 436.846 141.858 441.168 146.18C445.49 150.502 447.921 156.361 447.928 162.474V376.946C447.921 383.058 445.49 388.918 441.168 393.24C436.846 397.562 430.986 399.993 424.874 400V400Z" fill="white"/>
<path d="M315.704 381.836H56.22C55.8951 381.838 55.5705 381.829 55.2504 381.811L177.974 312.695C180.311 311.352 185.554 310.88 189.684 311.64C190.817 311.814 191.913 312.17 192.932 312.695L275.295 359.077L279.241 361.297L315.704 381.836Z" fill="#E6E6E6"/>
<path d="M397.568 381.836H173.136L216.626 361.297L219.756 359.817L276.428 333.051C280.143 331.296 289.082 331.187 293.45 332.72C293.743 332.824 294.015 332.935 294.266 333.051L397.568 381.836Z" fill="#E6E6E6"/>
<path d="M23.054 140.817C17.3123 140.823 11.8076 143.107 7.74754 147.167C3.68751 151.227 1.40373 156.732 1.39722 162.474V376.946C1.40373 382.688 3.68751 388.192 7.74754 392.252C11.8076 396.312 17.3123 398.596 23.054 398.603H424.874C430.616 398.596 436.12 396.312 440.18 392.252C444.24 388.192 446.524 382.688 446.531 376.946V162.474C446.524 156.732 444.24 151.227 440.18 147.167C436.12 143.107 430.616 140.823 424.874 140.817H23.054Z" fill="#3F3D56"/>
<path d="M424.874 383.233H23.0541C21.3871 383.232 19.789 382.568 18.6103 381.39C17.4315 380.211 16.7685 378.613 16.7666 376.946V162.474C16.7685 160.807 17.4315 159.209 18.6103 158.03C19.789 156.851 21.3871 156.188 23.0541 156.186H424.874C426.541 156.188 428.139 156.851 429.318 158.03C430.496 159.209 431.159 160.807 431.161 162.474V376.946C431.159 378.613 430.496 380.211 429.318 381.39C428.139 382.568 426.541 383.232 424.874 383.233V383.233ZM23.0541 157.583C21.7575 157.585 20.5145 158.101 19.5977 159.017C18.681 159.934 18.1653 161.177 18.1638 162.474V376.946C18.1653 378.242 18.681 379.485 19.5977 380.402C20.5145 381.319 21.7575 381.835 23.0541 381.836H424.874C426.17 381.835 427.413 381.319 428.33 380.402C429.247 379.485 429.763 378.242 429.764 376.946V162.474C429.763 161.177 429.247 159.934 428.33 159.017C427.413 158.101 426.17 157.585 424.874 157.583H23.0541Z" fill="#CCCCCC"/>
<path d="M335.343 195.444C359.227 195.444 378.589 176.082 378.589 152.198C378.589 128.314 359.227 108.952 335.343 108.952C311.459 108.952 292.097 128.314 292.097 152.198C292.097 176.082 311.459 195.444 335.343 195.444Z" fill="#FF6584"/>
<path d="M353.423 309.648C383.673 309.648 408.195 278.953 408.195 241.089C408.195 203.224 383.673 172.529 353.423 172.529C323.172 172.529 298.65 203.224 298.65 241.089C298.65 278.953 323.172 309.648 353.423 309.648Z" fill="#F2F2F2"/>
<path d="M353.573 227.302H353.724L356.432 382.592H350.714L353.573 227.302Z" fill="#CCCCCC"/>
<path d="M362.915 330.109C363.083 330.427 363.117 330.798 363.01 331.141C362.904 331.484 362.666 331.771 362.348 331.938L354.492 336.074L353.23 333.678L361.086 329.542C361.404 329.374 361.775 329.34 362.118 329.447C362.461 329.553 362.748 329.791 362.915 330.109V330.109Z" fill="#CCCCCC"/>
<path d="M195.952 309.648C226.202 309.648 250.725 278.953 250.725 241.089C250.725 203.224 226.202 172.529 195.952 172.529C165.702 172.529 141.179 203.224 141.179 241.089C141.179 278.953 165.702 309.648 195.952 309.648Z" fill="#F2F2F2"/>
<path d="M205.445 332.677V332.677C205.278 332.359 204.991 332.12 204.648 332.014C204.305 331.908 203.933 331.942 203.615 332.109L198.131 334.996L196.253 227.302H196.102L193.244 382.592H198.961L198.184 338.03L204.877 334.506C205.195 334.338 205.433 334.052 205.54 333.709C205.646 333.366 205.612 332.994 205.445 332.677V332.677Z" fill="#CCCCCC"/>
<path d="M274.497 83.0901C312.827 83.0901 343.982 155.314 343.982 203.292C343.982 251.27 312.909 290.164 274.579 290.164C236.248 290.164 205.175 251.27 205.175 203.292C205.175 155.314 236.166 83.0901 274.497 83.0901Z" fill="#7C3AED"/>
<path d="M286.607 318.645C286.502 318.446 286.359 318.269 286.185 318.125C286.012 317.981 285.812 317.872 285.597 317.806C285.382 317.739 285.155 317.715 284.931 317.736C284.707 317.757 284.489 317.821 284.289 317.926L277.34 321.585L274.96 185.124H274.769L271.147 381.894H278.392L277.407 325.428L285.888 320.963C286.087 320.858 286.264 320.715 286.408 320.541C286.552 320.368 286.661 320.168 286.728 319.953C286.794 319.738 286.818 319.511 286.797 319.287C286.777 319.063 286.712 318.844 286.607 318.645Z" fill="#3F3D56"/>
<path d="M426.271 398.603H24.4512C18.3391 398.596 12.4792 396.165 8.15721 391.843C3.83524 387.521 1.40412 381.661 1.39722 375.549V161.076C1.40412 154.964 3.83524 149.104 8.15721 144.782C12.4792 140.46 18.3391 138.029 24.4512 138.022H426.271C432.383 138.029 438.243 140.46 442.565 144.782C446.887 149.104 449.318 154.964 449.325 161.076V375.549C449.318 381.661 446.887 387.521 442.565 391.843C438.243 396.165 432.383 398.596 426.271 398.603V398.603Z" fill="white"/>
<path d="M317.101 380.439H57.6172C57.2923 380.44 56.9677 380.432 56.6476 380.414L179.371 311.298C181.708 309.955 186.951 309.483 191.081 310.242C192.214 310.417 193.311 310.773 194.329 311.298L276.692 357.68L280.638 359.9L317.101 380.439Z" fill="#E6E6E6"/>
<path d="M398.965 380.439H174.533L218.023 359.9L221.153 358.42L277.825 331.653C281.541 329.899 290.479 329.79 294.847 331.323C295.14 331.427 295.412 331.537 295.663 331.653L398.965 380.439Z" fill="#E6E6E6"/>
<path d="M426.271 398.603H24.4512C18.3391 398.596 12.4792 396.165 8.15721 391.843C3.83524 387.521 1.40412 381.661 1.39722 375.549V161.076C1.40412 154.964 3.83524 149.104 8.15721 144.782C12.4792 140.46 18.3391 138.029 24.4512 138.022H426.271C432.383 138.029 438.243 140.46 442.565 144.782C446.887 149.104 449.318 154.964 449.325 161.076V375.549C449.318 381.661 446.887 387.521 442.565 391.843C438.243 396.165 432.383 398.596 426.271 398.603V398.603ZM24.4512 139.42C18.7095 139.426 13.2048 141.71 9.14476 145.77C5.08472 149.83 2.80094 155.335 2.79443 161.076V375.549C2.80094 381.29 5.08472 386.795 9.14476 390.855C13.2048 394.915 18.7095 397.199 24.4512 397.206H426.271C432.013 397.199 437.518 394.915 441.578 390.855C445.638 386.795 447.921 381.29 447.928 375.549V161.076C447.921 155.335 445.638 149.83 441.578 145.77C437.518 141.71 432.013 139.426 426.271 139.42H24.4512Z" fill="#3F3D56"/>
<path d="M426.271 381.836H24.4513C22.7843 381.834 21.1862 381.171 20.0075 379.993C18.8288 378.814 18.1657 377.216 18.1638 375.549V161.076C18.1657 159.409 18.8288 157.811 20.0075 156.633C21.1862 155.454 22.7843 154.791 24.4513 154.789H426.271C427.938 154.791 429.536 155.454 430.715 156.633C431.894 157.811 432.557 159.409 432.559 161.076V375.549C432.557 377.216 431.894 378.814 430.715 379.993C429.536 381.171 427.938 381.834 426.271 381.836V381.836ZM24.4513 156.186C23.1548 156.188 21.9117 156.703 20.995 157.62C20.0782 158.537 19.5625 159.78 19.561 161.076V375.549C19.5625 376.845 20.0782 378.088 20.995 379.005C21.9117 379.922 23.1548 380.438 24.4513 380.439H426.271C427.568 380.438 428.811 379.922 429.727 379.005C430.644 378.088 431.16 376.845 431.161 375.549V161.076C431.16 159.78 430.644 158.537 429.727 157.62C428.811 156.703 427.568 156.188 426.271 156.186H24.4513Z" fill="#CCCCCC"/>
<path d="M336.74 194.046C360.624 194.046 379.986 174.684 379.986 150.8C379.986 126.916 360.624 107.554 336.74 107.554C312.856 107.554 293.494 126.916 293.494 150.8C293.494 174.684 312.856 194.046 336.74 194.046Z" fill="#FF6584"/>
<path d="M354.82 308.251C385.07 308.251 409.593 277.556 409.593 239.691C409.593 201.827 385.07 171.132 354.82 171.132C324.569 171.132 300.047 201.827 300.047 239.691C300.047 277.556 324.569 308.251 354.82 308.251Z" fill="#F2F2F2"/>
<path d="M354.971 225.905H355.121L357.829 381.195H352.111L354.971 225.905Z" fill="#CCCCCC"/>
<path d="M364.313 328.712C364.48 329.03 364.514 329.401 364.408 329.744C364.301 330.087 364.063 330.374 363.745 330.541L355.889 334.677L354.627 332.28L362.483 328.144C362.801 327.977 363.172 327.943 363.515 328.049C363.858 328.156 364.145 328.394 364.313 328.712Z" fill="#CCCCCC"/>
<path d="M197.349 308.251C227.599 308.251 252.122 277.556 252.122 239.691C252.122 201.827 227.599 171.132 197.349 171.132C167.099 171.132 142.576 201.827 142.576 239.691C142.576 277.556 167.099 308.251 197.349 308.251Z" fill="#F2F2F2"/>
<path d="M206.842 331.279V331.279C206.675 330.962 206.388 330.723 206.045 330.617C205.702 330.51 205.331 330.545 205.013 330.712L199.528 333.599L197.65 225.905H197.5L194.641 381.195H200.359L199.581 336.632L206.275 333.109C206.592 332.941 206.831 332.655 206.937 332.312C207.043 331.969 207.009 331.597 206.842 331.279V331.279Z" fill="#CCCCCC"/>
<path d="M275.894 81.6929C314.224 81.6929 345.379 153.916 345.379 201.895C345.379 249.873 314.306 288.767 275.976 288.767C237.645 288.767 206.573 249.873 206.573 201.895C206.573 153.917 237.563 81.6929 275.894 81.6929Z" fill="#7C3AED"/>
<path d="M288.004 317.248C287.899 317.049 287.756 316.872 287.583 316.728C287.409 316.584 287.209 316.475 286.994 316.408C286.779 316.342 286.553 316.318 286.328 316.339C286.104 316.359 285.886 316.424 285.686 316.529L278.737 320.187L276.357 183.727H276.167L272.544 380.497H279.789L278.804 324.031L287.285 319.566C287.485 319.461 287.661 319.318 287.805 319.144C287.95 318.971 288.058 318.771 288.125 318.556C288.191 318.34 288.215 318.114 288.194 317.89C288.174 317.665 288.109 317.447 288.004 317.248V317.248Z" fill="#3F3D56"/>
</g>
<defs>
<clipPath id="clip0_225_9">
<rect width="533.857" height="400" fill="white"/>
</clipPath>
</defs>
</svg>
