<svg width="150" height="32" viewBox="0 0 150 32" fill="none" xmlns="http://www.w3.org/2000/svg">
<path d="M43.5852 25V11.9091H46.5341V14.1335H46.6875C46.9602 13.3835 47.4119 12.7983 48.0426 12.3778C48.6733 11.9517 49.4261 11.7386 50.3011 11.7386C51.1875 11.7386 51.9347 11.9545 52.5426 12.3864C53.1563 12.8125 53.5881 13.3949 53.8381 14.1335H53.9744C54.2642 13.4062 54.7528 12.8267 55.4403 12.3949C56.1335 11.9574 56.9545 11.7386 57.9034 11.7386C59.108 11.7386 60.0909 12.1193 60.8523 12.8807C61.6136 13.642 61.9943 14.7528 61.9943 16.2131V25H58.9006V16.6903C58.9006 15.8778 58.6847 15.2841 58.2528 14.9091C57.821 14.5284 57.2926 14.3381 56.6676 14.3381C55.9233 14.3381 55.3409 14.571 54.9205 15.0369C54.5057 15.4972 54.2983 16.0966 54.2983 16.8352V25H51.2727V16.5625C51.2727 15.8864 51.0682 15.3466 50.6591 14.9432C50.2557 14.5398 49.7273 14.3381 49.0739 14.3381C48.6307 14.3381 48.2273 14.4517 47.8636 14.679C47.5 14.9006 47.2102 15.2159 46.9943 15.625C46.7784 16.0284 46.6705 16.5 46.6705 17.0398V25H43.5852ZM70.9197 25.2557C69.6072 25.2557 68.4737 24.983 67.5192 24.4375C66.5703 23.8864 65.8402 23.108 65.3288 22.1023C64.8175 21.0909 64.5618 19.9006 64.5618 18.5312C64.5618 17.1847 64.8175 16.0028 65.3288 14.9858C65.8459 13.9631 66.5675 13.1676 67.4936 12.5994C68.4197 12.0256 69.5078 11.7386 70.7578 11.7386C71.5646 11.7386 72.326 11.8693 73.0419 12.1307C73.7635 12.3864 74.3999 12.7841 74.951 13.3239C75.5078 13.8636 75.9453 14.5511 76.2635 15.3864C76.5817 16.2159 76.7408 17.2045 76.7408 18.3523V19.2983H66.0107V17.2188H73.7834C73.7777 16.6278 73.6499 16.1023 73.3999 15.642C73.1499 15.1761 72.8004 14.8097 72.3516 14.5426C71.9084 14.2756 71.3913 14.142 70.8004 14.142C70.1697 14.142 69.6158 14.2955 69.1385 14.6023C68.6612 14.9034 68.2891 15.3011 68.022 15.7955C67.7607 16.2841 67.6271 16.821 67.6214 17.4062V19.2216C67.6214 19.983 67.7607 20.6364 68.0391 21.1818C68.3175 21.7216 68.7067 22.1364 69.2067 22.4261C69.7067 22.7102 70.2919 22.8523 70.9624 22.8523C71.4112 22.8523 71.8175 22.7898 72.1811 22.6648C72.5447 22.5341 72.8601 22.3438 73.1271 22.0938C73.3942 21.8438 73.5959 21.5341 73.7322 21.1648L76.6129 21.4886C76.4311 22.25 76.0845 22.9148 75.5732 23.483C75.0675 24.0455 74.4197 24.483 73.63 24.7955C72.8402 25.1023 71.9368 25.2557 70.9197 25.2557ZM79.3509 25V11.9091H82.3423V14.0909H82.4787C82.7173 13.3352 83.1264 12.7528 83.706 12.3438C84.2912 11.929 84.9588 11.7216 85.7088 11.7216C85.8793 11.7216 86.0696 11.7301 86.2798 11.7472C86.4957 11.7585 86.6747 11.7784 86.8168 11.8068V14.6449C86.6861 14.5994 86.4787 14.5597 86.1946 14.5256C85.9162 14.4858 85.6463 14.4659 85.3849 14.4659C84.8224 14.4659 84.3168 14.5881 83.8679 14.8324C83.4247 15.071 83.0753 15.4034 82.8196 15.8295C82.5639 16.2557 82.4361 16.7472 82.4361 17.304V25H79.3509ZM94.0376 25.2557C92.7308 25.2557 91.6087 24.9688 90.6712 24.3949C89.7393 23.821 89.0206 23.0284 88.5149 22.017C88.0149 21 87.7649 19.8295 87.7649 18.5057C87.7649 17.1761 88.0206 16.0028 88.532 14.9858C89.0433 13.9631 89.7649 13.1676 90.6967 12.5994C91.6342 12.0256 92.7422 11.7386 94.0206 11.7386C95.0831 11.7386 96.0234 11.9347 96.8416 12.3267C97.6655 12.7131 98.3217 13.2614 98.8104 13.9716C99.299 14.6761 99.5774 15.5 99.6456 16.4432H96.6967C96.5774 15.8125 96.2933 15.2869 95.8445 14.8665C95.4013 14.4403 94.8075 14.2273 94.0632 14.2273C93.4325 14.2273 92.8786 14.3977 92.4013 14.7386C91.924 15.0739 91.5518 15.5568 91.2848 16.1875C91.0234 16.8182 90.8928 17.5739 90.8928 18.4545C90.8928 19.3466 91.0234 20.1136 91.2848 20.7557C91.5462 21.392 91.9126 21.8835 92.3842 22.2301C92.8615 22.571 93.4212 22.7415 94.0632 22.7415C94.5178 22.7415 94.924 22.6562 95.282 22.4858C95.6456 22.3097 95.9496 22.0568 96.1939 21.7273C96.4382 21.3977 96.6058 20.9972 96.6967 20.5256H99.6456C99.5717 21.4517 99.299 22.2727 98.8274 22.9886C98.3558 23.6989 97.7138 24.2557 96.9013 24.6591C96.0888 25.0568 95.1342 25.2557 94.0376 25.2557ZM105.264 17.3295V25H102.179V7.54545H105.196V14.1335H105.349C105.656 13.3949 106.131 12.8125 106.773 12.3864C107.42 11.9545 108.244 11.7386 109.244 11.7386C110.153 11.7386 110.946 11.929 111.622 12.3097C112.298 12.6903 112.821 13.2472 113.19 13.9801C113.565 14.7131 113.753 15.608 113.753 16.6648V25H110.668V17.142C110.668 16.2614 110.44 15.5767 109.986 15.0881C109.537 14.5937 108.906 14.3466 108.094 14.3466C107.548 14.3466 107.06 14.4659 106.628 14.7045C106.202 14.9375 105.866 15.2756 105.622 15.7188C105.384 16.1619 105.264 16.6989 105.264 17.3295ZM120.665 25.2642C119.835 25.2642 119.088 25.1165 118.423 24.821C117.764 24.5199 117.241 24.0767 116.855 23.4915C116.474 22.9062 116.284 22.1847 116.284 21.3267C116.284 20.5881 116.42 19.9773 116.693 19.4943C116.966 19.0114 117.338 18.625 117.81 18.3352C118.281 18.0455 118.813 17.8267 119.403 17.679C120 17.5256 120.616 17.4148 121.253 17.3466C122.02 17.267 122.642 17.196 123.119 17.1335C123.597 17.0653 123.943 16.9631 124.159 16.8267C124.381 16.6847 124.491 16.4659 124.491 16.1705V16.1193C124.491 15.4773 124.301 14.9801 123.92 14.6278C123.54 14.2756 122.991 14.0994 122.276 14.0994C121.52 14.0994 120.92 14.2642 120.477 14.5938C120.04 14.9233 119.744 15.3125 119.591 15.7614L116.71 15.3523C116.938 14.5568 117.313 13.892 117.835 13.358C118.358 12.8182 118.997 12.4148 119.753 12.1477C120.509 11.875 121.344 11.7386 122.259 11.7386C122.889 11.7386 123.517 11.8125 124.142 11.9602C124.767 12.108 125.338 12.3523 125.855 12.6932C126.372 13.0284 126.787 13.4858 127.099 14.0653C127.418 14.6449 127.577 15.3693 127.577 16.2386V25H124.611V23.2017H124.509C124.321 23.5653 124.057 23.9062 123.716 24.2244C123.381 24.5369 122.957 24.7898 122.446 24.983C121.94 25.1705 121.347 25.2642 120.665 25.2642ZM121.466 22.9972C122.085 22.9972 122.622 22.875 123.077 22.6307C123.531 22.3807 123.881 22.0511 124.125 21.642C124.375 21.233 124.5 20.7869 124.5 20.304V18.7614C124.403 18.8409 124.239 18.9148 124.006 18.983C123.778 19.0511 123.523 19.1108 123.239 19.1619C122.955 19.2131 122.673 19.2585 122.395 19.2983C122.116 19.3381 121.875 19.3722 121.67 19.4006C121.21 19.4631 120.798 19.5653 120.435 19.7074C120.071 19.8494 119.784 20.0483 119.574 20.304C119.364 20.554 119.259 20.8778 119.259 21.2756C119.259 21.8438 119.466 22.2727 119.881 22.5625C120.295 22.8523 120.824 22.9972 121.466 22.9972ZM130.679 25V11.9091H133.764V25H130.679ZM132.23 10.0511C131.741 10.0511 131.321 9.8892 130.969 9.56534C130.616 9.23579 130.44 8.84091 130.44 8.38068C130.44 7.91477 130.616 7.51989 130.969 7.19602C131.321 6.86648 131.741 6.7017 132.23 6.7017C132.724 6.7017 133.145 6.86648 133.491 7.19602C133.844 7.51989 134.02 7.91477 134.02 8.38068C134.02 8.84091 133.844 9.23579 133.491 9.56534C133.145 9.8892 132.724 10.0511 132.23 10.0511ZM140.022 17.3295V25H136.937V11.9091H139.886V14.1335H140.039C140.34 13.4006 140.82 12.8182 141.479 12.3864C142.144 11.9545 142.965 11.7386 143.942 11.7386C144.846 11.7386 145.633 11.9318 146.303 12.3182C146.979 12.7045 147.502 13.2642 147.871 13.9972C148.246 14.7301 148.431 15.6193 148.425 16.6648V25H145.34V17.142C145.34 16.267 145.113 15.5824 144.658 15.0881C144.21 14.5937 143.587 14.3466 142.792 14.3466C142.252 14.3466 141.772 14.4659 141.352 14.7045C140.937 14.9375 140.61 15.2756 140.371 15.7188C140.138 16.1619 140.022 16.6989 140.022 17.3295Z" fill="#7C3AED"/>
<rect width="32" height="32" rx="9" fill="#7C3AED"/>
<path d="M17.158 14.842C16.5436 14.2279 15.7106 13.883 14.842 13.883C13.9734 13.883 13.1403 14.2279 12.526 14.842L10.2092 17.158C9.59489 17.7723 9.24976 18.6056 9.24976 19.4744C9.24976 20.3432 9.59489 21.1764 10.2092 21.7908C10.8236 22.4051 11.6568 22.7502 12.5256 22.7502C13.3944 22.7502 14.2276 22.4051 14.842 21.7908L16 20.6328" stroke="white" stroke-width="1.5" stroke-linecap="round" stroke-linejoin="round"/>
<path d="M14.842 17.158C15.4563 17.7721 16.2894 18.117 17.158 18.117C18.0266 18.117 18.8596 17.7721 19.474 17.158L21.7907 14.842C22.4051 14.2277 22.7502 13.3944 22.7502 12.5256C22.7502 11.6568 22.4051 10.8236 21.7907 10.2092C21.1764 9.5949 20.3432 9.24977 19.4744 9.24977C18.6055 9.24977 17.7723 9.5949 17.158 10.2092L16 11.3672" stroke="white" stroke-width="1.5" stroke-linecap="round" stroke-linejoin="round"/>
</svg>
