<svg width="32" height="32" viewBox="0 0 32 32" fill="none" xmlns="http://www.w3.org/2000/svg">
<rect width="32" height="32" rx="9" fill="#7C3AED"/>
<path d="M17.158 14.842C16.5436 14.2279 15.7106 13.883 14.842 13.883C13.9734 13.883 13.1403 14.2279 12.526 14.842L10.2092 17.158C9.59489 17.7723 9.24976 18.6056 9.24976 19.4744C9.24976 20.3432 9.59489 21.1764 10.2092 21.7908C10.8236 22.4051 11.6568 22.7502 12.5256 22.7502C13.3944 22.7502 14.2276 22.4051 14.842 21.7908L16 20.6328" stroke="white" stroke-width="1.5" stroke-linecap="round" stroke-linejoin="round"/>
<path d="M14.842 17.158C15.4563 17.7721 16.2894 18.117 17.158 18.117C18.0266 18.117 18.8596 17.7721 19.474 17.158L21.7907 14.842C22.4051 14.2277 22.7502 13.3944 22.7502 12.5256C22.7502 11.6568 22.4051 10.8236 21.7907 10.2092C21.1764 9.5949 20.3432 9.24977 19.4744 9.24977C18.6055 9.24977 17.7723 9.5949 17.158 10.2092L16 11.3672" stroke="white" stroke-width="1.5" stroke-linecap="round" stroke-linejoin="round"/>
</svg>
