<svg width="406" height="306" viewBox="0 0 406 306" fill="none" xmlns="http://www.w3.org/2000/svg">
<path d="M137.868 117.708C137.763 117.708 137.66 117.676 137.573 117.617C137.465 117.538 137.391 117.419 137.368 117.287C137.346 117.154 137.375 117.018 137.451 116.907C137.573 116.734 149.763 99.4791 164.298 89.3088C164.352 89.2701 164.413 89.2425 164.477 89.2277C164.542 89.2129 164.609 89.2111 164.674 89.2224C164.739 89.2338 164.801 89.258 164.857 89.2938C164.913 89.3295 164.961 89.376 164.998 89.4306C165.037 89.4851 165.065 89.5469 165.08 89.6122C165.095 89.6775 165.097 89.7452 165.086 89.8112C165.074 89.8773 165.05 89.9405 165.014 89.9971C164.978 90.0537 164.932 90.1026 164.877 90.1411C150.494 100.22 138.405 117.313 138.284 117.475C138.239 117.545 138.177 117.603 138.105 117.644C138.032 117.684 137.951 117.707 137.868 117.708V117.708Z" fill="#231F20"/>
<path d="M307.545 260.813H307.464L265.849 253.972C261.5 253.277 257.492 251.197 254.421 248.04C251.351 244.883 249.381 240.82 248.807 236.453L243.701 198.675C243.69 198.609 243.692 198.542 243.708 198.478C243.723 198.413 243.752 198.352 243.792 198.299C243.832 198.245 243.882 198.201 243.94 198.168C243.998 198.135 244.062 198.114 244.128 198.107C244.194 198.097 244.261 198.1 244.326 198.116C244.391 198.132 244.452 198.16 244.505 198.2C244.559 198.239 244.605 198.289 244.639 198.346C244.674 198.404 244.696 198.467 244.706 198.533L249.781 236.372C250.333 240.527 252.212 244.393 255.138 247.394C258.064 250.396 261.881 252.372 266.021 253.028L307.393 259.819L325.815 246.076L295.365 240.158C290.295 239.158 285.69 236.529 282.252 232.67C278.815 228.811 276.733 223.934 276.324 218.782L269.726 133.614L238.038 149.742C237.911 149.792 237.769 149.792 237.642 149.742C237.515 149.699 237.409 149.608 237.348 149.488L225.005 124.58C224.975 124.513 224.959 124.44 224.959 124.367C224.959 124.293 224.975 124.221 225.005 124.154C225.035 124.085 225.08 124.025 225.136 123.975C225.192 123.926 225.258 123.89 225.33 123.87L255.942 115.201C256.038 115.174 256.139 115.177 256.233 115.207C256.327 115.238 256.409 115.296 256.47 115.374L270.508 132.294L348.074 142.058C348.208 142.076 348.329 142.146 348.413 142.252C348.496 142.358 348.535 142.493 348.52 142.627C348.513 142.694 348.492 142.758 348.459 142.817C348.427 142.876 348.383 142.927 348.33 142.969C348.277 143.011 348.216 143.041 348.151 143.059C348.087 143.077 348.019 143.082 347.952 143.073L270.812 133.36L277.41 218.62C277.802 223.557 279.801 228.229 283.1 231.923C286.4 235.616 290.818 238.127 295.68 239.072L327.226 245.213C327.321 245.233 327.409 245.28 327.479 245.348C327.55 245.417 327.599 245.503 327.622 245.599C327.643 245.694 327.636 245.794 327.602 245.886C327.568 245.978 327.507 246.058 327.429 246.116L307.9 260.631C307.858 260.685 307.804 260.729 307.743 260.761C307.681 260.793 307.614 260.81 307.545 260.813V260.813ZM226.193 124.722L238.088 148.605L269.442 132.7L255.892 116.369L226.193 124.722Z" fill="#D1D3D4"/>
<path d="M244.199 199.061C244.064 199.086 243.925 199.057 243.812 198.98C243.699 198.903 243.621 198.784 243.595 198.65C243.569 198.515 243.598 198.376 243.675 198.263C243.753 198.149 243.871 198.071 244.006 198.046L274.152 185.48C274.238 185.456 274.329 185.456 274.415 185.48L337.518 194.199C337.652 194.219 337.773 194.291 337.854 194.399C337.936 194.507 337.972 194.643 337.954 194.778C337.945 194.844 337.922 194.907 337.887 194.964C337.853 195.021 337.807 195.071 337.754 195.111C337.7 195.15 337.639 195.179 337.574 195.195C337.509 195.211 337.442 195.214 337.376 195.204L274.446 186.505L244.422 199.041C244.351 199.068 244.274 199.075 244.199 199.061V199.061Z" fill="#D1D3D4"/>
<path d="M285.631 247.04C288.109 247.04 290.118 244.663 290.118 241.731C290.118 238.8 288.109 236.423 285.631 236.423C283.154 236.423 281.145 238.8 281.145 241.731C281.145 244.663 283.154 247.04 285.631 247.04Z" fill="white"/>
<path d="M285.631 247.557C282.88 247.557 280.637 244.939 280.637 241.731C280.637 238.524 282.88 235.915 285.631 235.915C288.382 235.915 290.625 238.524 290.625 241.731C290.625 244.939 288.392 247.557 285.631 247.557ZM285.631 236.93C283.439 236.93 281.652 239.082 281.652 241.731C281.652 244.38 283.439 246.542 285.631 246.542C287.823 246.542 289.61 244.38 289.61 241.731C289.61 239.082 287.823 236.93 285.631 236.93Z" fill="#D1D3D4"/>
<path d="M268.539 264.884C271.016 264.884 273.025 262.507 273.025 259.575C273.025 256.643 271.016 254.267 268.539 254.267C266.061 254.267 264.052 256.643 264.052 259.575C264.052 262.507 266.061 264.884 268.539 264.884Z" fill="white"/>
<path d="M268.538 265.391C265.788 265.391 263.545 262.782 263.545 259.575C263.545 256.368 265.788 253.759 268.538 253.759C271.289 253.759 273.542 256.368 273.542 259.575C273.542 262.782 271.299 265.391 268.538 265.391ZM268.538 254.774C266.346 254.774 264.56 256.926 264.56 259.575C264.56 262.224 266.346 264.376 268.538 264.376C270.731 264.376 272.527 262.224 272.527 259.575C272.527 256.926 270.741 254.774 268.538 254.774Z" fill="#D1D3D4"/>
<path d="M293.112 268.568C295.59 268.568 297.598 266.191 297.598 263.259C297.598 260.328 295.59 257.951 293.112 257.951C290.634 257.951 288.625 260.328 288.625 263.259C288.625 266.191 290.634 268.568 293.112 268.568Z" fill="white"/>
<path d="M293.111 269.085C290.361 269.085 288.118 266.467 288.118 263.259C288.118 260.052 290.361 257.443 293.111 257.443C295.862 257.443 298.105 260.052 298.105 263.259C298.105 266.467 295.862 269.085 293.111 269.085ZM293.111 258.458C290.919 258.458 289.133 260.61 289.133 263.259C289.133 265.908 290.919 268.07 293.111 268.07C295.304 268.07 297.09 265.908 297.09 263.259C297.09 260.61 295.304 258.458 293.111 258.458Z" fill="#D1D3D4"/>
<path d="M312.975 253.444C315.453 253.444 317.461 251.068 317.461 248.136C317.461 245.204 315.453 242.827 312.975 242.827C310.497 242.827 308.489 245.204 308.489 248.136C308.489 251.068 310.497 253.444 312.975 253.444Z" fill="white"/>
<path d="M312.975 253.952C310.225 253.952 307.981 251.343 307.981 248.136C307.981 244.929 310.225 242.31 312.975 242.31C315.726 242.31 317.969 244.929 317.969 248.136C317.969 251.343 315.726 253.952 312.975 253.952ZM312.975 243.325C310.783 243.325 308.996 245.487 308.996 248.136C308.996 250.785 310.783 252.937 312.975 252.937C315.168 252.937 316.954 250.785 316.954 248.136C316.954 245.487 315.168 243.335 312.975 243.335V243.325Z" fill="#D1D3D4"/>
<path d="M317.979 192.504H317.868C317.803 192.491 317.741 192.464 317.686 192.427C317.631 192.39 317.584 192.341 317.548 192.286C317.513 192.23 317.488 192.167 317.477 192.102C317.465 192.037 317.467 191.97 317.482 191.905L328.647 140.962C328.66 140.897 328.686 140.835 328.724 140.78C328.761 140.726 328.809 140.679 328.865 140.643C328.921 140.607 328.983 140.583 329.049 140.571C329.114 140.56 329.181 140.561 329.246 140.576C329.311 140.591 329.373 140.618 329.428 140.656C329.483 140.695 329.53 140.744 329.566 140.8C329.601 140.857 329.626 140.92 329.637 140.986C329.648 141.052 329.646 141.12 329.631 141.185L318.466 192.118C318.439 192.227 318.377 192.324 318.289 192.394C318.201 192.464 318.092 192.503 317.979 192.504Z" fill="#D1D3D4"/>
<path d="M302.196 190.311C302.13 190.31 302.065 190.296 302.004 190.269C301.944 190.242 301.889 190.203 301.844 190.155C301.798 190.107 301.763 190.05 301.74 189.988C301.717 189.926 301.706 189.86 301.709 189.794L303.069 137.014C303.069 136.879 303.122 136.75 303.218 136.655C303.313 136.56 303.442 136.506 303.577 136.506C303.711 136.506 303.84 136.56 303.935 136.655C304.031 136.75 304.084 136.879 304.084 137.014L302.724 189.794C302.725 189.863 302.713 189.932 302.686 189.996C302.66 190.06 302.621 190.118 302.572 190.167C302.522 190.215 302.464 190.253 302.399 190.278C302.334 190.303 302.265 190.314 302.196 190.311Z" fill="#D1D3D4"/>
<path d="M259.515 192.768C259.391 192.767 259.272 192.721 259.179 192.639C259.085 192.557 259.025 192.444 259.008 192.321L252.126 141.835C252.109 141.7 252.145 141.564 252.228 141.457C252.311 141.349 252.433 141.279 252.568 141.262C252.702 141.244 252.838 141.281 252.946 141.364C253.053 141.446 253.124 141.569 253.141 141.703L260.023 192.179C260.04 192.311 260.005 192.444 259.926 192.55C259.846 192.657 259.728 192.727 259.596 192.747L259.515 192.768Z" fill="#D1D3D4"/>
<path d="M263.555 154.177C263.839 153.162 259.576 109.294 259.576 109.294L306.885 102.96L319.938 151.985L263.555 154.177Z" fill="white"/>
<path d="M263.555 154.644C263.484 154.643 263.415 154.626 263.352 154.594C263.288 154.563 263.233 154.517 263.189 154.462C263.146 154.409 263.115 154.346 263.099 154.28C263.083 154.213 263.083 154.143 263.098 154.076C263.24 152.767 260.794 126.671 259.119 109.335C259.108 109.217 259.143 109.099 259.217 109.006C259.29 108.913 259.398 108.853 259.515 108.837L306.824 102.494C306.937 102.478 307.051 102.505 307.145 102.568C307.239 102.632 307.305 102.729 307.332 102.839L320.385 151.843C320.404 151.908 320.407 151.977 320.395 152.044C320.383 152.111 320.355 152.174 320.314 152.229C320.273 152.286 320.22 152.333 320.159 152.367C320.097 152.4 320.029 152.419 319.958 152.422L263.575 154.644H263.555ZM260.084 109.69C261.099 119.779 263.87 149.021 264.012 153.69L319.339 151.518L306.53 103.468L260.084 109.69Z" fill="#231F20"/>
<path d="M329.175 193.539L337.447 125.859L300.166 115.861L267.463 183.714L329.175 193.539Z" fill="white"/>
<path d="M329.175 194.006H329.104L267.392 184.181C267.321 184.167 267.255 184.138 267.197 184.096C267.139 184.054 267.091 184 267.057 183.937C267.025 183.873 267.008 183.801 267.008 183.729C267.008 183.657 267.025 183.586 267.057 183.521L299.75 115.668C299.801 115.574 299.881 115.5 299.978 115.456C300.075 115.412 300.184 115.401 300.288 115.425L337.579 125.422C337.685 125.451 337.778 125.517 337.839 125.608C337.901 125.7 337.927 125.81 337.914 125.92L329.642 193.6C329.622 193.724 329.557 193.836 329.459 193.915C329.376 193.975 329.277 194.007 329.175 194.006V194.006ZM268.153 183.349L328.779 193.011L336.899 126.204L300.44 116.46L268.153 183.349Z" fill="#231F20"/>
<path d="M300.044 132.954C299.975 132.955 299.906 132.941 299.843 132.912C299.779 132.883 299.723 132.84 299.679 132.786C299.635 132.732 299.604 132.669 299.588 132.602C299.572 132.534 299.572 132.463 299.588 132.395C299.588 131.218 296.735 116.47 292.219 111.75C290.635 110.086 289.021 109.974 287.783 111.273C283.987 115.252 284.677 130.477 284.677 130.629C284.687 130.696 284.683 130.763 284.664 130.828C284.645 130.892 284.613 130.952 284.569 131.003C284.525 131.054 284.471 131.095 284.41 131.123C284.349 131.15 284.283 131.165 284.215 131.165C284.148 131.165 284.082 131.15 284.021 131.123C283.96 131.095 283.906 131.054 283.862 131.003C283.818 130.952 283.786 130.892 283.767 130.828C283.748 130.763 283.744 130.696 283.754 130.629C283.754 129.99 283.043 114.856 287.113 110.593C287.433 110.232 287.825 109.941 288.264 109.74C288.702 109.539 289.178 109.432 289.661 109.426C291.518 109.426 293.315 110.999 295 114.095C298.41 120.317 300.867 132.071 300.44 132.7C300.404 132.775 300.348 132.838 300.278 132.883C300.208 132.928 300.127 132.952 300.044 132.954V132.954Z" fill="#231F20"/>
<path d="M288.97 192.352C288.841 192.352 288.716 192.302 288.622 192.214C288.528 192.125 288.471 192.004 288.463 191.874L285.032 136.821C285.028 136.754 285.037 136.687 285.059 136.624C285.081 136.561 285.115 136.503 285.159 136.453C285.203 136.403 285.257 136.362 285.317 136.333C285.377 136.304 285.443 136.287 285.509 136.283C285.643 136.277 285.774 136.324 285.875 136.413C285.975 136.502 286.037 136.626 286.047 136.76L289.478 191.814C289.484 191.948 289.437 192.079 289.348 192.179C289.259 192.279 289.135 192.341 289.001 192.352H288.97Z" fill="#D1D3D4"/>
<path d="M259.414 196.96C259.089 196.148 265.717 132.497 265.717 132.497L303.485 139.044L308.753 198.421L259.414 196.96Z" fill="white"/>
<path d="M308.733 198.888L259.414 197.427C259.324 197.422 259.237 197.392 259.163 197.34C259.089 197.288 259.032 197.216 258.998 197.132C258.663 196.31 263.271 151.62 265.27 132.446C265.274 132.383 265.292 132.321 265.322 132.265C265.351 132.209 265.393 132.16 265.443 132.122C265.494 132.081 265.553 132.053 265.616 132.039C265.679 132.025 265.745 132.025 265.808 132.04L303.546 138.587C303.646 138.606 303.738 138.657 303.807 138.732C303.877 138.807 303.92 138.902 303.932 139.003L309.21 198.381C309.217 198.446 309.21 198.511 309.19 198.574C309.17 198.636 309.136 198.693 309.092 198.741C309.048 198.789 308.993 198.827 308.933 198.853C308.873 198.878 308.808 198.89 308.743 198.888H308.733ZM259.84 196.513L308.195 197.944L302.998 139.44L266.092 133.035C264.357 150.067 260.063 191.936 259.84 196.513Z" fill="#231F20"/>
<path d="M265.717 132.497L271.512 125.94L313.615 129.026L303.465 139.044L265.717 132.497Z" fill="white"/>
<path d="M303.485 139.511H303.404L265.656 132.964C265.576 132.948 265.501 132.912 265.439 132.858C265.376 132.805 265.329 132.736 265.301 132.659C265.273 132.581 265.267 132.496 265.283 132.414C265.299 132.331 265.337 132.255 265.392 132.193L271.188 125.636C271.238 125.585 271.298 125.545 271.364 125.518C271.431 125.492 271.502 125.48 271.574 125.483L313.666 128.528C313.755 128.537 313.84 128.57 313.911 128.624C313.983 128.677 314.038 128.75 314.072 128.833C314.102 128.918 314.108 129.01 314.088 129.098C314.068 129.186 314.024 129.266 313.96 129.33L303.81 139.348C303.727 139.442 303.61 139.5 303.485 139.511V139.511ZM266.631 132.182L303.323 138.546L312.58 129.411L271.736 126.366L266.631 132.182Z" fill="#231F20"/>
<path d="M313.615 129.026L320.111 192.9L308.733 198.421L303.465 139.044L313.615 129.026Z" fill="white"/>
<path d="M308.733 198.888C308.654 198.887 308.577 198.866 308.509 198.827C308.443 198.79 308.387 198.738 308.346 198.674C308.306 198.61 308.281 198.537 308.276 198.462L302.998 139.084C302.993 139.017 303.003 138.949 303.028 138.886C303.052 138.822 303.091 138.765 303.14 138.719L313.29 128.691C313.353 128.632 313.431 128.592 313.515 128.575C313.599 128.558 313.687 128.564 313.768 128.594C313.849 128.623 313.92 128.674 313.973 128.741C314.027 128.809 314.061 128.889 314.071 128.975L320.578 192.849C320.585 192.944 320.565 193.04 320.517 193.123C320.47 193.206 320.399 193.273 320.314 193.316L308.936 198.847C308.872 198.876 308.802 198.89 308.733 198.888V198.888ZM303.942 139.226L309.139 197.711L319.623 192.636L313.249 130.051L303.942 139.226Z" fill="#231F20"/>
<path d="M292.482 143.55H292.431C292.371 143.544 292.313 143.526 292.26 143.497C292.207 143.468 292.16 143.429 292.122 143.381C292.085 143.334 292.057 143.28 292.04 143.222C292.023 143.164 292.018 143.103 292.025 143.043C292.929 134.679 293.822 112.755 287.184 111.811C286.666 111.747 286.14 111.792 285.64 111.942C285.141 112.092 284.678 112.345 284.281 112.684C278.018 117.495 275.42 138.892 275.39 139.074C275.387 139.139 275.372 139.202 275.344 139.261C275.316 139.319 275.276 139.371 275.227 139.413C275.177 139.455 275.12 139.486 275.058 139.505C274.996 139.524 274.931 139.529 274.867 139.522C274.803 139.514 274.741 139.493 274.685 139.46C274.629 139.427 274.581 139.383 274.544 139.33C274.506 139.278 274.48 139.218 274.466 139.155C274.453 139.091 274.453 139.026 274.466 138.963C274.578 138.069 277.146 116.968 283.713 111.913C284.211 111.505 284.789 111.205 285.409 111.03C286.028 110.856 286.678 110.81 287.316 110.898C296.197 112.156 293.081 141.876 292.939 143.144C292.926 143.256 292.873 143.36 292.788 143.435C292.704 143.51 292.595 143.551 292.482 143.55Z" fill="#231F20"/>
<path d="M272.111 111.527C271.993 111.525 271.879 111.477 271.795 111.394C271.71 111.311 271.66 111.199 271.655 111.081C271.655 110.218 270.802 89.9178 279.775 88.1416C281.185 87.8319 282.645 87.8218 284.059 88.1121C285.474 88.4023 286.811 88.9864 287.986 89.8265C294.969 94.7391 296.938 107.284 297.019 107.822C297.021 107.935 296.982 108.044 296.909 108.13C296.837 108.216 296.735 108.273 296.624 108.29C296.513 108.307 296.4 108.284 296.304 108.224C296.209 108.164 296.139 108.072 296.106 107.965C296.106 107.833 294.076 95.2669 287.458 90.5877C286.384 89.8194 285.16 89.2859 283.866 89.0218C282.572 88.7578 281.236 88.7691 279.947 89.0551C271.827 90.6689 272.609 110.837 272.619 111.04C272.622 111.163 272.577 111.283 272.494 111.373C272.41 111.464 272.295 111.519 272.172 111.527H272.111Z" fill="#231F20"/>
<path d="M326.708 129.026H326.597C326.479 128.994 326.378 128.919 326.316 128.814C326.253 128.71 326.234 128.586 326.262 128.467C326.262 128.366 328.687 118.774 328.718 115.739C328.718 113.709 326.942 109.142 323.958 107.558C322.191 106.635 320.273 106.868 318.243 108.279C311.483 112.968 310.6 123.839 310.59 123.94C310.594 124.007 310.585 124.073 310.561 124.136C310.538 124.198 310.501 124.254 310.454 124.301C310.407 124.348 310.351 124.385 310.289 124.408C310.226 124.432 310.16 124.442 310.093 124.437C310.027 124.433 309.962 124.414 309.904 124.383C309.845 124.352 309.794 124.308 309.753 124.255C309.713 124.202 309.684 124.142 309.669 124.077C309.654 124.012 309.653 123.945 309.666 123.88C309.666 123.413 310.59 112.461 317.715 107.518C320.628 105.488 322.953 105.985 324.384 106.746C327.825 108.563 329.662 113.648 329.642 115.749C329.642 118.896 327.256 128.295 327.155 128.691C327.129 128.789 327.071 128.876 326.99 128.936C326.909 128.997 326.81 129.029 326.708 129.026Z" fill="#231F20"/>
<path d="M326.109 183.135H326.049L240.322 173.584C240.188 173.566 240.066 173.497 239.983 173.391C239.899 173.285 239.861 173.15 239.875 173.016C239.895 172.885 239.964 172.766 240.067 172.684C240.17 172.601 240.301 172.56 240.433 172.569L325.957 182.1L342.075 169.92C342.183 169.839 342.318 169.805 342.452 169.824C342.585 169.843 342.705 169.914 342.786 170.022C342.864 170.13 342.897 170.265 342.878 170.397C342.859 170.53 342.79 170.65 342.684 170.732L326.444 182.993C326.355 183.081 326.235 183.132 326.109 183.135Z" fill="#D1D3D4"/>
<path d="M265.808 200.532C265.685 200.531 265.567 200.485 265.476 200.403C265.384 200.32 265.326 200.208 265.311 200.086L259.008 151.569C258.993 151.436 259.03 151.303 259.112 151.197C259.193 151.091 259.312 151.021 259.444 151C259.51 150.99 259.578 150.994 259.643 151.011C259.707 151.027 259.768 151.057 259.821 151.098C259.874 151.139 259.919 151.19 259.952 151.248C259.984 151.306 260.005 151.37 260.013 151.437L266.316 199.954C266.326 200.02 266.322 200.088 266.306 200.152C266.289 200.217 266.259 200.278 266.218 200.331C266.178 200.384 266.127 200.428 266.068 200.461C266.01 200.494 265.946 200.515 265.879 200.522L265.808 200.532Z" fill="#D1D3D4"/>
<path d="M285.631 201.872C285.496 201.872 285.367 201.819 285.272 201.724C285.177 201.628 285.124 201.499 285.124 201.365V154.177C285.124 154.043 285.177 153.914 285.272 153.819C285.367 153.723 285.496 153.67 285.631 153.67C285.766 153.67 285.895 153.723 285.99 153.819C286.085 153.914 286.139 154.043 286.139 154.177V201.365C286.139 201.499 286.085 201.628 285.99 201.724C285.895 201.819 285.766 201.872 285.631 201.872Z" fill="#D1D3D4"/>
<path d="M303.932 202.928L303.556 202.583V202.075V202.583L303.079 202.43C303.495 200.685 307.708 157.77 307.586 156.542C307.576 156.409 307.617 156.277 307.699 156.172C307.782 156.067 307.901 155.996 308.032 155.974C308.164 155.956 308.297 155.991 308.404 156.071C308.51 156.151 308.581 156.269 308.601 156.4C308.651 156.766 304.5 202.319 303.932 202.928Z" fill="#D1D3D4"/>
<path d="M321.968 204.339L244.209 199.061C244.091 199.051 243.98 199.001 243.893 198.92C243.807 198.839 243.75 198.731 243.732 198.614L237.398 149.356C237.387 149.283 237.391 149.208 237.41 149.136C237.429 149.064 237.463 148.998 237.51 148.94C237.563 148.884 237.628 148.841 237.7 148.815C237.772 148.789 237.85 148.779 237.926 148.788L330.819 158.288C330.89 158.296 330.96 158.318 331.022 158.353C331.085 158.388 331.14 158.435 331.184 158.491C331.225 158.548 331.253 158.612 331.267 158.68C331.281 158.749 331.281 158.819 331.266 158.887L322.476 203.933C322.45 204.048 322.386 204.151 322.294 204.225C322.201 204.299 322.086 204.339 321.968 204.339V204.339ZM244.615 198.076L321.522 203.293L330.129 159.242L238.424 149.864L244.615 198.076Z" fill="#D1D3D4"/>
<path d="M321.968 204.339C321.863 204.339 321.76 204.308 321.674 204.247C321.594 204.192 321.533 204.114 321.497 204.024C321.46 203.934 321.452 203.835 321.471 203.74L330.261 158.694C330.285 158.59 330.338 158.495 330.413 158.42L347.668 142.18C347.747 142.106 347.847 142.06 347.955 142.047C348.062 142.035 348.17 142.056 348.264 142.11C348.358 142.163 348.433 142.245 348.477 142.343C348.521 142.441 348.533 142.552 348.511 142.657L337.995 194.787C337.982 194.858 337.953 194.924 337.911 194.982C337.869 195.04 337.814 195.088 337.752 195.122L322.273 204.257C322.183 204.318 322.076 204.347 321.968 204.339V204.339ZM331.225 159.09L322.679 202.857L336.99 194.402L347.191 144.109L331.225 159.09Z" fill="#D1D3D4"/>
<path d="M342.38 170.874H331.326C331.192 170.874 331.063 170.821 330.967 170.725C330.872 170.63 330.819 170.501 330.819 170.367C330.819 170.232 330.872 170.103 330.967 170.008C331.063 169.913 331.192 169.859 331.326 169.859H342.38C342.514 169.859 342.643 169.913 342.739 170.008C342.834 170.103 342.887 170.232 342.887 170.367C342.885 170.5 342.83 170.628 342.736 170.723C342.641 170.817 342.513 170.872 342.38 170.874Z" fill="#D1D3D4"/>
<path d="M240.382 173.584C240.316 173.596 240.247 173.595 240.181 173.581C240.115 173.566 240.052 173.539 239.997 173.5C239.941 173.462 239.894 173.412 239.857 173.355C239.821 173.298 239.796 173.235 239.784 173.168C239.772 173.101 239.773 173.033 239.787 172.967C239.802 172.901 239.829 172.838 239.868 172.782C239.906 172.727 239.955 172.679 240.012 172.643C240.069 172.606 240.133 172.581 240.2 172.569L262.124 164.206C262.186 164.182 262.253 164.17 262.32 164.172C262.387 164.174 262.453 164.189 262.515 164.216C262.576 164.244 262.631 164.283 262.677 164.331C262.723 164.38 262.759 164.437 262.783 164.5C262.807 164.563 262.819 164.629 262.817 164.696C262.815 164.764 262.8 164.83 262.773 164.891C262.746 164.952 262.706 165.007 262.658 165.054C262.609 165.1 262.552 165.136 262.489 165.16L240.555 173.554C240.5 173.575 240.441 173.585 240.382 173.584V173.584Z" fill="#D1D3D4"/>
<path d="M246.818 218.376C246.695 218.375 246.576 218.328 246.485 218.246C246.394 218.164 246.335 218.052 246.32 217.93C246.249 217.422 246.209 217.158 275.684 205.191C275.808 205.144 275.946 205.145 276.069 205.196C276.192 205.247 276.29 205.344 276.344 205.465C276.394 205.592 276.393 205.733 276.339 205.859C276.286 205.984 276.186 206.084 276.06 206.135C265.047 210.611 248.401 217.463 247.193 218.214C247.11 218.296 247.004 218.349 246.889 218.366L246.818 218.376Z" fill="#D1D3D4"/>
<path d="M270.142 260.194C270.162 260.019 270.162 259.842 270.142 259.666C269.838 257.799 267.584 257.19 267.097 259.281C266.904 259.962 266.988 260.691 267.33 261.311C268.366 263.067 269.99 261.747 270.142 260.194Z" fill="#D1D3D4"/>
<path d="M287.793 241.965C287.793 241.823 287.793 241.68 287.732 241.538C287.72 241.47 287.703 241.402 287.682 241.335C287.619 241.173 287.548 241.013 287.468 240.858C287.376 240.713 287.274 240.574 287.164 240.442H287.113C287.088 240.401 287.058 240.363 287.022 240.33C286.927 240.241 286.826 240.159 286.717 240.087L286.636 240.036L286.321 239.904C286.152 239.859 285.973 239.859 285.804 239.904C285.689 239.904 285.577 239.936 285.479 239.996C285.318 240.047 285.174 240.142 285.063 240.27C285.012 240.32 284.971 240.381 284.921 240.442L284.789 240.615C284.716 240.753 284.651 240.895 284.596 241.041C284.537 241.232 284.503 241.43 284.494 241.63V241.751C284.489 241.775 284.489 241.799 284.494 241.823C284.501 241.959 284.518 242.095 284.545 242.229C284.595 242.419 284.666 242.603 284.758 242.777L284.829 242.888C284.915 243.014 285.01 243.133 285.114 243.244C285.224 243.341 285.339 243.433 285.459 243.518C285.597 243.596 285.744 243.661 285.895 243.71C286.16 243.787 286.442 243.787 286.707 243.71C286.837 243.681 286.96 243.63 287.073 243.558L287.204 243.457L287.347 243.345L287.458 243.203L287.57 243.051C287.627 242.947 287.675 242.838 287.712 242.726C287.722 242.594 287.722 242.462 287.712 242.33C287.722 242.27 287.722 242.208 287.712 242.147L287.793 241.965Z" fill="#D1D3D4"/>
<path d="M295.04 263.199C295.037 263.062 295.02 262.926 294.99 262.793C294.96 262.642 294.905 262.498 294.827 262.366V262.305L294.624 262.042C294.436 261.857 294.206 261.721 293.954 261.646C293.725 261.585 293.483 261.585 293.254 261.646C293.039 261.707 292.843 261.822 292.685 261.981C292.583 262.101 292.491 262.23 292.411 262.366C292.338 262.503 292.277 262.646 292.229 262.793C292.227 262.816 292.227 262.84 292.229 262.864C292.229 262.996 292.229 263.138 292.178 263.27C292.173 263.317 292.173 263.365 292.178 263.412V263.645C292.173 263.726 292.173 263.808 292.178 263.889C292.203 263.99 292.237 264.088 292.279 264.183C292.279 264.275 292.361 264.366 292.411 264.457C292.498 264.588 292.597 264.71 292.706 264.823C292.863 264.981 293.059 265.097 293.274 265.158C293.443 265.208 293.623 265.208 293.792 265.158C293.966 265.157 294.136 265.104 294.279 265.005C294.475 264.896 294.636 264.734 294.746 264.538C294.765 264.513 294.782 264.486 294.797 264.457L294.929 264.122C294.956 263.992 294.972 263.859 294.979 263.726C294.984 263.703 294.984 263.679 294.979 263.655C295.016 263.506 295.036 263.353 295.04 263.199Z" fill="#D1D3D4"/>
<path d="M314.65 248.085C314.65 247.808 314.58 247.536 314.447 247.293C314.449 247.27 314.449 247.246 314.447 247.222C314.381 247.121 314.306 247.026 314.224 246.938V246.938L314.082 246.826L313.94 246.715L313.625 246.583C313.455 246.538 313.277 246.538 313.107 246.583C312.937 246.587 312.771 246.639 312.63 246.735L312.366 246.938C312.208 247.096 312.092 247.291 312.031 247.507C312 247.596 311.973 247.688 311.95 247.781C311.912 247.982 311.888 248.185 311.879 248.39C311.879 248.44 311.879 248.481 311.879 248.532V248.643C311.871 248.808 311.906 248.973 311.981 249.12C311.976 249.171 311.976 249.222 311.981 249.273C312.042 249.487 312.158 249.683 312.316 249.841C312.474 249.999 312.669 250.114 312.884 250.176C313.106 250.237 313.341 250.238 313.563 250.179C313.786 250.12 313.989 250.004 314.153 249.841V249.841C314.234 249.74 314.325 249.638 314.396 249.537C314.472 249.401 314.534 249.258 314.579 249.11C314.584 249.066 314.584 249.022 314.579 248.978V248.725C314.652 248.52 314.677 248.301 314.65 248.085V248.085Z" fill="#D1D3D4"/>
<path d="M86.3969 86.7205C86.3105 86.7209 86.2259 86.6962 86.1533 86.6495C86.0487 86.5845 85.9741 86.4808 85.9456 86.3611C85.917 86.2413 85.937 86.1152 86.001 86.01C88.4675 82.0109 100.911 62.056 103.946 61.65C104.074 61.6303 104.204 61.6402 104.327 61.6789C104.451 61.7176 104.563 61.7841 104.657 61.8733C106.687 63.8424 100.201 78.1133 98.1607 82.4372C98.1025 82.5391 98.008 82.6154 97.8961 82.6507C97.7842 82.6861 97.663 82.678 97.5568 82.6281C97.4506 82.5782 97.367 82.4901 97.3228 82.3814C97.2786 82.2726 97.277 82.1512 97.3183 82.0414C101.378 73.4646 105.073 63.5684 104.007 62.5432C102.495 62.5432 94.0601 74.7232 86.7521 86.4871C86.717 86.5524 86.6661 86.608 86.6041 86.6488C86.542 86.6895 86.4708 86.7142 86.3969 86.7205V86.7205Z" fill="#231F20"/>
<path d="M83.707 84.4064L49.7451 127.747L54.9622 131.878L57.114 140.952L98.7696 125.818L106.9 82.752L83.707 84.4064Z" fill="white"/>
<path d="M57.104 141.449C57.0222 141.45 56.9416 141.429 56.8705 141.389C56.8057 141.358 56.749 141.313 56.7049 141.256C56.6608 141.2 56.6306 141.134 56.6168 141.064L54.5157 132.162L49.4407 128.102C49.3346 128.02 49.2654 127.899 49.2483 127.766C49.2312 127.633 49.2675 127.498 49.3494 127.392L83.3214 84.0512C83.3634 83.9955 83.4168 83.9494 83.4781 83.9162C83.5394 83.8829 83.6071 83.8632 83.6767 83.8583L106.869 82.2039C106.947 82.1978 107.026 82.2103 107.098 82.2403C107.17 82.2703 107.235 82.3169 107.286 82.3764C107.337 82.4332 107.375 82.5013 107.397 82.5752C107.418 82.6492 107.421 82.7271 107.407 82.8027L99.2874 125.879C99.2682 125.964 99.2285 126.042 99.1719 126.108C99.1152 126.173 99.0434 126.224 98.9626 126.255L57.3476 141.378C57.2726 141.42 57.1894 141.444 57.104 141.449V141.449ZM50.4557 127.625L55.277 131.452C55.3668 131.524 55.4309 131.624 55.4597 131.736L57.4897 140.242L98.3434 125.412L106.301 83.2798L83.971 84.8632L50.4557 127.625Z" fill="#D1D3D4"/>
<path d="M87.8482 91.7548L82.2454 84.3555L101.074 76.7734L105.316 81.5033L87.8482 91.7548Z" fill="#D1D3D4"/>
<path d="M87.8482 92.2624C87.7696 92.2616 87.6921 92.243 87.6218 92.2078C87.5514 92.1726 87.49 92.1219 87.4422 92.0594L81.8394 84.6702C81.7941 84.6062 81.7634 84.533 81.7494 84.4559C81.7354 84.3787 81.7384 84.2995 81.7582 84.2236C81.7785 84.149 81.8156 84.0801 81.8666 84.0221C81.9176 83.964 81.9812 83.9184 82.0526 83.8887L100.881 76.3066C100.977 76.2659 101.084 76.2568 101.186 76.2805C101.288 76.3042 101.38 76.3595 101.449 76.4386L105.702 81.1685C105.752 81.2245 105.789 81.2909 105.81 81.3629C105.831 81.4348 105.836 81.5105 105.824 81.5846C105.812 81.662 105.782 81.7354 105.736 81.7989C105.69 81.8624 105.63 81.9142 105.56 81.95L88.1121 92.1913C88.0327 92.2397 87.9412 92.2644 87.8482 92.2624V92.2624ZM83.0473 84.5788L87.9802 91.085L104.545 81.3816L100.932 77.3825L83.0473 84.5788Z" fill="#D1D3D4"/>
<path d="M97.3386 90.1817H97.2675C97.2072 90.1731 97.1492 90.1525 97.097 90.1211C97.0448 90.0898 96.9994 90.0483 96.9635 89.9991C96.9275 89.9499 96.9018 89.894 96.8878 89.8348C96.8737 89.7755 96.8717 89.714 96.8818 89.6539C97.8968 83.1681 101.378 61.985 104.707 61.8226C104.881 61.8171 105.054 61.8497 105.213 61.918C105.373 61.9864 105.515 62.089 105.631 62.2185C108.158 64.7763 107.083 82.8839 106.951 84.9443C106.955 85.0107 106.945 85.0772 106.922 85.1395C106.898 85.2018 106.862 85.2583 106.815 85.3053C106.768 85.3524 106.711 85.3888 106.649 85.4123C106.587 85.4357 106.52 85.4455 106.454 85.4412C106.388 85.4368 106.323 85.4183 106.264 85.3869C106.206 85.3555 106.154 85.3119 106.114 85.2591C106.074 85.2063 106.045 85.1455 106.03 85.0807C106.015 85.0159 106.014 84.9486 106.027 84.8834C106.534 76.9766 106.666 64.5834 105.012 62.8681C104.987 62.8318 104.953 62.8019 104.915 62.7808C104.876 62.7597 104.833 62.7478 104.789 62.7463C103.043 62.8376 99.8253 76.8548 97.8359 89.796C97.8183 89.9118 97.7568 90.0164 97.6643 90.0882C97.5717 90.16 97.4551 90.1935 97.3386 90.1817Z" fill="#231F20"/>
<path d="M92.1112 90.3644L80.5808 138.323L91.5733 145.794L110.939 131.137L113.487 85.2285L92.1112 90.3644Z" fill="white"/>
<path d="M91.5732 146.301C91.4713 146.3 91.3721 146.268 91.289 146.21L80.2965 138.79C80.2112 138.732 80.1458 138.65 80.1094 138.553C80.0731 138.457 80.0675 138.352 80.0935 138.252L91.6239 90.2425C91.6468 90.1518 91.6937 90.069 91.7599 90.0029C91.826 89.9368 91.9088 89.8898 91.9995 89.867L113.314 84.792C113.392 84.7727 113.472 84.7718 113.55 84.7895C113.627 84.8071 113.7 84.8427 113.761 84.8935C113.821 84.9444 113.869 85.0083 113.901 85.0804C113.932 85.1525 113.947 85.2309 113.944 85.3096L111.396 131.208C111.393 131.282 111.373 131.354 111.338 131.419C111.303 131.484 111.253 131.54 111.193 131.583L91.8777 146.199C91.7918 146.269 91.6836 146.305 91.5732 146.301V146.301ZM81.1999 138.1L91.6036 145.205L110.493 130.914L112.98 85.9288L92.5374 90.7805L81.1999 138.1Z" fill="#D1D3D4"/>
<path d="M90.9541 89.877L98.526 93.6935L113.487 85.2284L108.808 80.6812L90.9541 89.877Z" fill="#D1D3D4"/>
<path d="M98.526 94.2011C98.4488 94.2152 98.3697 94.2152 98.2925 94.2011L90.7206 90.3745C90.6379 90.333 90.5684 90.2692 90.52 90.1903C90.4716 90.1114 90.4462 90.0205 90.4466 89.9279C90.4454 89.8339 90.4705 89.7414 90.5189 89.6607C90.5673 89.5801 90.6371 89.5144 90.7206 89.4712L108.605 80.2245C108.699 80.1766 108.805 80.1596 108.909 80.176C109.013 80.1924 109.109 80.2414 109.183 80.3159L113.873 84.8732C113.928 84.9286 113.969 84.9959 113.994 85.0698C114.018 85.1437 114.026 85.2223 114.015 85.2995C114.005 85.3778 113.977 85.4526 113.933 85.5179C113.889 85.5832 113.83 85.6371 113.761 85.6751L98.7797 94.13C98.7035 94.1771 98.6155 94.2017 98.526 94.2011V94.2011ZM92.0706 89.867L98.5158 93.115L112.665 85.127L108.737 81.3004L92.0706 89.867Z" fill="#D1D3D4"/>
<path d="M59.7429 136.07C59.6452 136.073 59.5492 136.044 59.4689 135.989C59.4127 135.953 59.3643 135.906 59.3266 135.851C59.2889 135.796 59.2627 135.734 59.2494 135.669C59.2362 135.603 59.2362 135.536 59.2495 135.471C59.2628 135.405 59.289 135.343 59.3268 135.288L86.5592 94.3128C86.5926 94.2505 86.6386 94.196 86.6943 94.1525C86.7499 94.1091 86.8141 94.0778 86.8825 94.0605C86.951 94.0433 87.0223 94.0405 87.0919 94.0524C87.1615 94.0643 87.2279 94.0906 87.2868 94.1296C87.3456 94.1686 87.3957 94.2195 87.4338 94.2789C87.4719 94.3384 87.4971 94.4052 87.5079 94.4749C87.5188 94.5447 87.5149 94.616 87.4966 94.6842C87.4783 94.7524 87.446 94.816 87.4017 94.871L60.1692 135.847C60.1209 135.915 60.0571 135.971 59.983 136.01C59.9089 136.048 59.8266 136.069 59.7429 136.07V136.07Z" fill="#D1D3D4"/>
<path d="M93.4309 142.982H93.3801C93.247 142.964 93.1262 142.894 93.0444 142.788C92.9626 142.681 92.9264 142.547 92.9437 142.413L99.1453 98.2812C99.1642 98.1466 99.2357 98.025 99.3442 97.9432C99.4527 97.8613 99.5893 97.826 99.7239 97.8448C99.8585 97.8636 99.9801 97.9352 100.062 98.0437C100.144 98.1522 100.179 98.2887 100.16 98.4233L93.9282 142.545C93.9112 142.666 93.8517 142.776 93.7605 142.856C93.6692 142.936 93.5523 142.981 93.4309 142.982Z" fill="#D1D3D4"/>
<path d="M103.297 95.9367C103.175 95.9341 103.058 95.8837 102.973 95.7965C102.888 95.7092 102.84 95.5919 102.84 95.4698C102.84 95.3886 102.941 87.3498 103.357 79.3618C104.21 62.8477 105.56 62.7361 106.271 62.665C108.94 62.665 110.94 81.6252 111.894 92.9729C111.907 93.0375 111.907 93.1042 111.893 93.1687C111.879 93.2332 111.851 93.2939 111.812 93.3469C111.772 93.3999 111.722 93.4439 111.665 93.4761C111.607 93.5084 111.543 93.528 111.478 93.5338C111.412 93.5396 111.346 93.5313 111.283 93.5097C111.221 93.488 111.164 93.4534 111.116 93.408C111.068 93.3627 111.03 93.3077 111.005 93.2467C110.98 93.1857 110.968 93.1201 110.97 93.0541C109.793 79.0573 107.712 64.2078 106.25 63.6191C104.91 64.4108 103.885 80.4478 103.713 95.5003C103.706 95.6105 103.661 95.7148 103.585 95.7947C103.508 95.8746 103.406 95.9249 103.297 95.9367V95.9367Z" fill="#231F20"/>
<path d="M204.015 83.8074C204.015 83.8074 215.099 106.675 225.827 111.547C233.97 115.317 242.471 118.259 251.202 120.327C257.455 121.779 260.713 130.66 260.713 132.446C260.713 134.233 257.303 135.684 255.11 134.222C252.918 132.761 248.279 128.853 248.279 128.853C248.279 128.853 249.01 134.943 246.818 133.735C244.625 132.527 243.651 126.417 243.651 126.417C243.651 126.417 233.064 127.432 226.162 124.225C219.26 121.017 205.375 114.227 198.544 105.955" fill="white"/>
<path d="M257.11 135.278C256.282 135.291 255.47 135.057 254.775 134.608C253.141 133.512 250.218 131.127 248.766 129.929C248.858 131.391 248.766 133.553 247.883 134.172C247.682 134.307 247.446 134.379 247.203 134.379C246.961 134.379 246.724 134.307 246.523 134.172C244.493 133.025 243.478 128.447 243.194 126.945C241.164 127.097 232.12 127.544 225.939 124.681C212.46 118.48 203.112 112.278 198.158 106.269C198.081 106.173 198.044 106.05 198.056 105.927C198.067 105.804 198.126 105.69 198.219 105.61C198.314 105.533 198.435 105.496 198.557 105.508C198.678 105.519 198.79 105.578 198.869 105.67C203.741 111.588 212.977 117.698 226.325 123.839C233.034 126.884 243.468 126.001 243.58 125.991C243.697 125.979 243.815 126.012 243.91 126.084C244.004 126.155 244.067 126.26 244.087 126.376C244.351 128.011 245.386 132.466 247.021 133.36C247.203 133.461 247.335 133.481 247.416 133.431C247.924 133.086 248.025 130.832 247.802 128.944C247.787 128.852 247.802 128.757 247.843 128.673C247.884 128.588 247.95 128.519 248.032 128.473C248.114 128.428 248.208 128.409 248.301 128.418C248.395 128.428 248.483 128.467 248.553 128.528C248.553 128.528 253.192 132.436 255.344 133.867C255.91 134.194 256.552 134.366 257.206 134.366C257.86 134.366 258.502 134.194 259.069 133.867C259.37 133.751 259.636 133.558 259.839 133.307C260.042 133.056 260.176 132.755 260.226 132.436C260.226 130.883 257.049 122.154 251.091 120.764C242.338 118.681 233.814 115.733 225.645 111.963C214.835 107.081 204.015 84.9949 203.548 83.9799C203.521 83.9254 203.504 83.866 203.5 83.8051C203.496 83.7442 203.504 83.6831 203.524 83.6253C203.544 83.5676 203.575 83.5145 203.616 83.469C203.657 83.4236 203.706 83.3868 203.761 83.3608C203.872 83.308 203.999 83.3007 204.115 83.3406C204.23 83.3805 204.326 83.4643 204.38 83.5739C204.492 83.8074 215.545 106.34 225.97 111.091C234.08 114.844 242.547 117.775 251.243 119.84C257.82 121.373 261.109 130.447 261.109 132.416C261.061 132.905 260.882 133.373 260.59 133.769C260.299 134.166 259.907 134.476 259.454 134.669C258.733 135.058 257.929 135.267 257.11 135.278Z" fill="#231F20"/>
<path d="M122.236 188.028L110.127 203.253L82.895 179.776C82.895 179.776 67.7614 194.097 69.9233 194.93C72.0853 195.762 80.2966 194.93 80.2966 194.93C80.2966 194.93 112.777 229.44 117.913 226.222C123.048 223.004 146.881 191.874 146.881 191.874" fill="white"/>
<path d="M117.08 226.933C115.202 226.933 110.452 224.903 96.8411 212.124C88.8429 204.603 81.2913 196.655 80.1139 195.417C78.7437 195.549 71.8112 196.158 69.7508 195.417C69.6262 195.371 69.5157 195.294 69.4302 195.192C69.3448 195.091 69.2873 194.969 69.2636 194.838C68.8373 192.687 79.3425 182.547 82.5702 179.481C82.6556 179.406 82.7657 179.364 82.8798 179.364C82.9939 179.364 83.104 179.406 83.1894 179.481L110.067 202.603L121.871 187.794C121.948 187.7 122.06 187.639 122.181 187.626C122.303 187.613 122.425 187.648 122.521 187.723C122.569 187.761 122.608 187.808 122.638 187.861C122.668 187.914 122.686 187.973 122.693 188.033C122.7 188.094 122.694 188.155 122.677 188.213C122.659 188.271 122.63 188.326 122.592 188.373L110.493 203.598C110.411 203.696 110.295 203.757 110.168 203.77C110.044 203.774 109.922 203.735 109.823 203.659L82.9052 180.405C76.5919 186.414 70.2583 193.174 70.1771 194.544C71.9736 195.143 78.0332 194.706 80.2459 194.483C80.3168 194.476 80.3884 194.485 80.4552 194.509C80.5221 194.534 80.5824 194.574 80.6316 194.625C93.0755 207.82 114.127 228.039 117.669 225.836C122.744 222.7 146.272 191.915 146.505 191.611C146.584 191.528 146.691 191.476 146.805 191.467C146.919 191.458 147.033 191.49 147.124 191.559C147.216 191.628 147.279 191.729 147.301 191.841C147.324 191.953 147.304 192.07 147.246 192.169C146.231 193.438 123.353 223.4 118.156 226.628C117.837 226.837 117.462 226.943 117.08 226.933Z" fill="#231F20"/>
<path d="M196.748 198.015L197.265 255.342C197.265 255.342 215.972 259.666 213.81 260.529C211.648 261.392 182.142 260.529 182.142 260.529L175.291 188.911" fill="white"/>
<path d="M204.37 261.382C195.682 261.382 184.07 261.057 182.132 260.996C182.021 260.994 181.914 260.952 181.832 260.877C181.749 260.802 181.697 260.7 181.685 260.59L174.834 188.961C174.825 188.84 174.863 188.719 174.941 188.625C175.018 188.53 175.129 188.469 175.25 188.454C175.372 188.443 175.494 188.48 175.589 188.558C175.684 188.636 175.745 188.748 175.757 188.87L182.568 260.093C193.54 260.407 209.597 260.671 213.018 260.225C210.988 259.291 203.802 257.352 197.103 255.809C197.003 255.785 196.913 255.727 196.849 255.647C196.785 255.566 196.749 255.466 196.748 255.363L196.23 198.036C196.23 197.912 196.279 197.793 196.367 197.705C196.454 197.618 196.573 197.569 196.697 197.569V197.569C196.819 197.569 196.936 197.616 197.023 197.702C197.111 197.787 197.161 197.903 197.164 198.025L197.671 254.987C214.287 258.834 214.368 259.961 214.398 260.326C214.406 260.471 214.364 260.615 214.279 260.733C214.194 260.851 214.072 260.937 213.932 260.976C213.201 261.28 209.242 261.382 204.37 261.382Z" fill="#231F20"/>
<path d="M168.734 79.8287C158.31 88.375 156.696 108.147 154.737 122.926L203.538 132.446C203.538 132.446 210.044 90.8313 203.964 83.8075C197.884 76.7837 179.158 71.2824 168.734 79.8287Z" fill="#8C3FDB"/>
<path d="M172.347 72.013C172.678 71.898 173.017 71.7762 173.362 71.6476C169.87 71.7694 166.592 69.7598 164.328 67.1005C162.065 64.4412 160.664 61.183 159.253 57.9654C160.766 58.7809 162.432 59.2716 164.144 59.4062C165.857 59.5408 167.579 59.3162 169.2 58.747C166.977 58.1698 164.957 56.9848 163.369 55.3247C161.781 53.6647 160.686 51.5952 160.208 49.3481C166.572 50.0282 172.388 46.0291 177.523 42.2431C182.659 38.4572 188.688 34.7422 195.479 37.3406C202.858 40.1522 205.101 48.8609 205.416 55.9761C205.811 65.1111 201.975 73.6168 192.819 76.7836C186.679 78.9151 179.848 78.1538 173.717 76.002C171.676 75.3813 169.786 74.3445 168.165 72.957C169.585 72.7713 170.985 72.4553 172.347 72.013V72.013Z" fill="white"/>
<path d="M184.994 78.5192C181.108 78.4762 177.257 77.7902 173.595 76.4892C171.497 75.8524 169.553 74.7918 167.881 73.3732C167.816 73.314 167.77 73.2379 167.747 73.1536C167.723 73.0692 167.724 72.98 167.749 72.8961C167.776 72.8127 167.825 72.7383 167.891 72.681C167.957 72.6237 168.038 72.5858 168.125 72.5713C169.129 72.4364 170.123 72.2294 171.098 71.9522C168.297 71.2775 165.798 69.6926 163.993 67.4456C161.669 64.7152 160.258 61.3556 158.918 58.1989C158.881 58.1117 158.872 58.015 158.892 57.9223C158.912 57.8295 158.96 57.7453 159.03 57.6813C159.102 57.6162 159.192 57.5745 159.288 57.5618C159.384 57.5491 159.482 57.566 159.568 57.6102C162.051 58.949 164.929 59.3626 167.688 58.7775C165.701 58.0045 163.938 56.7489 162.557 55.124C161.177 53.499 160.223 51.5559 159.781 49.4699C159.767 49.3982 159.769 49.3242 159.789 49.2536C159.808 49.1831 159.844 49.1181 159.893 49.0639C159.944 49.0116 160.006 48.9715 160.074 48.9469C160.143 48.9223 160.216 48.9137 160.289 48.9218C166.379 49.5613 171.768 45.958 177.28 41.8879C182.446 38.0613 188.556 34.2145 195.672 36.9245C203.995 40.1015 205.659 50.221 205.903 55.9761C206.36 66.3392 201.538 74.2461 193.002 77.2911C190.42 78.1465 187.713 78.5617 184.994 78.5192V78.5192ZM169.271 73.292C170.689 74.2824 172.25 75.0492 173.9 75.5656C178.67 77.2403 185.816 78.7324 192.698 76.3471C200.818 73.5356 205.416 65.9231 204.979 55.9964C204.736 50.4646 203.162 40.7714 195.347 37.7264C188.668 35.1787 182.801 38.8835 177.828 42.5578C172.57 46.4452 166.937 50.1804 160.827 49.8252C161.388 51.851 162.47 53.695 163.963 55.1744C165.457 56.6539 167.311 57.7174 169.343 58.2598C169.44 58.2835 169.526 58.3378 169.59 58.4145C169.654 58.4912 169.692 58.5864 169.698 58.6861C169.703 58.785 169.677 58.883 169.622 58.9654C169.567 59.0477 169.487 59.11 169.393 59.1429C166.4 60.1899 163.126 60.096 160.197 58.879C161.292 61.7114 162.8 64.3658 164.674 66.7554C167.099 69.5974 170.337 71.2315 173.331 71.1402C173.441 71.1372 173.548 71.1718 173.635 71.2383C173.722 71.3049 173.783 71.3992 173.809 71.5056C173.828 71.614 173.809 71.7258 173.756 71.822C173.702 71.9182 173.617 71.9929 173.514 72.0334L172.499 72.4089C171.444 72.7748 170.366 73.0698 169.271 73.292V73.292Z" fill="#231F20"/>
<path d="M194.636 70.4398L194.687 79.6966C194.687 79.6966 193.753 84.863 188.12 83.2897C186.464 82.8046 184.936 81.9574 183.648 80.8093C182.359 79.6613 181.342 78.2411 180.67 76.6516L181.289 60.6349C182.022 57.831 182.334 54.9335 182.213 52.0379C189.054 51.9364 194.393 46.77 194.393 46.77C194.393 46.77 196.748 50.3022 197.763 51.4187C198.611 52.2508 199.347 53.189 199.955 54.21C200.899 55.9862 200.868 58.2192 200.818 60.1883C200.796 62.5252 200.565 64.8555 200.127 67.1512C199.194 71.5157 194.636 70.4398 194.636 70.4398Z" fill="white"/>
<path d="M190.12 84.051C189.401 84.0437 188.688 83.9379 187.998 83.7364C186.264 83.2413 184.664 82.3619 183.316 81.1635C181.968 79.9651 180.908 78.4785 180.213 76.8141C180.203 76.7571 180.203 76.6986 180.213 76.6415C180.213 76.6415 180.853 60.7263 180.853 60.6147C180.883 60.3397 180.937 60.068 181.015 59.8027C181.652 57.2699 181.909 54.6564 181.776 52.0481C181.776 51.9268 181.824 51.8103 181.908 51.7233C181.949 51.6782 182 51.6423 182.056 51.6178C182.112 51.5933 182.172 51.5808 182.233 51.5812C188.82 51.4695 194.088 46.5062 194.139 46.4351C194.189 46.3886 194.248 46.3536 194.313 46.3326C194.378 46.3115 194.447 46.305 194.515 46.3133C194.582 46.3187 194.648 46.3399 194.706 46.3752C194.764 46.4104 194.813 46.4587 194.849 46.5163C194.849 46.5163 197.194 50.0282 198.179 51.1041C199.023 51.9704 199.756 52.9388 200.361 53.9867C201.376 55.9051 201.325 58.2802 201.285 60.1985C201.268 62.5636 201.031 64.922 200.574 67.2426C200.479 67.8566 200.257 68.4441 199.924 68.9682C199.59 69.4923 199.151 69.9416 198.635 70.2876C197.577 70.8997 196.345 71.1425 195.134 70.9778L195.184 79.6967C195.048 80.4292 194.768 81.1274 194.36 81.751C193.953 82.3747 193.426 82.9115 192.809 83.3304C192.002 83.8277 191.067 84.0782 190.12 84.051V84.051ZM181.117 76.5806C181.776 78.0769 182.754 79.4119 183.98 80.4932C185.207 81.5745 186.654 82.3764 188.222 82.8432C188.88 83.0858 189.583 83.1851 190.283 83.1343C190.983 83.0836 191.665 82.884 192.282 82.5488C193.279 81.8525 193.975 80.8044 194.23 79.6155L194.169 70.4805C194.169 70.4107 194.184 70.3417 194.215 70.2788C194.245 70.2159 194.289 70.1607 194.344 70.1176C194.399 70.0745 194.463 70.0445 194.531 70.03C194.599 70.0155 194.67 70.0168 194.738 70.0339C195.885 70.2664 197.077 70.0905 198.108 69.5365C198.516 69.2571 198.863 68.8968 199.127 68.4777C199.391 68.0587 199.565 67.5899 199.64 67.1005C200.08 64.8325 200.311 62.529 200.33 60.2188C200.33 58.3106 200.422 56.1588 199.508 54.4638C198.948 53.4849 198.266 52.581 197.478 51.774C196.366 50.4086 195.326 48.9856 194.362 47.511C192.992 48.6884 188.414 52.2612 182.69 52.5353C182.784 55.0706 182.518 57.6064 181.898 60.0666C181.84 60.2737 181.792 60.4838 181.756 60.6959V60.6959C181.756 60.6959 181.736 60.9395 181.117 76.5806Z" fill="#231F20"/>
<path d="M194.586 74.9871C192.305 75.0282 190.096 74.1926 188.414 72.6526C187.728 72.005 187.19 71.2155 186.84 70.339C186.489 69.4626 186.334 68.5202 186.384 67.5776C188.87 69.1876 191.715 70.157 194.667 70.3993L194.586 74.9871Z" fill="#231F20"/>
<path d="M194.413 75.4336C192.065 75.4514 189.801 74.5645 188.09 72.957C187.355 72.27 186.779 71.4309 186.402 70.4982C186.025 69.5656 185.856 68.5619 185.907 67.5572C185.918 67.482 185.948 67.4108 185.995 67.3504C186.041 67.2901 186.102 67.2425 186.171 67.2121C186.236 67.1747 186.31 67.155 186.384 67.155C186.459 67.155 186.533 67.1747 186.598 67.2121C186.598 67.2121 190.607 69.8613 194.647 69.9526C194.705 69.954 194.763 69.9668 194.817 69.9905C194.87 70.0142 194.919 70.0482 194.959 70.0906C195 70.133 195.032 70.183 195.053 70.2377C195.074 70.2924 195.084 70.3507 195.083 70.4094V74.9464C195.081 75.0607 195.036 75.17 194.957 75.2527C194.878 75.3354 194.771 75.3854 194.657 75.393L194.413 75.4336ZM186.76 68.42C186.931 69.9094 187.613 71.2936 188.688 72.3379C190.162 73.7066 192.087 74.4868 194.098 74.5303V70.8661C191.504 70.5927 189 69.758 186.76 68.42Z" fill="#231F20"/>
<path d="M192.789 63.2435C192.31 63.2376 191.833 63.1763 191.368 63.0608C191.252 63.0312 191.153 62.9568 191.092 62.854C191.031 62.7512 191.014 62.6285 191.043 62.5127C191.073 62.3969 191.147 62.2977 191.25 62.2368C191.353 62.1759 191.476 62.1583 191.591 62.1879C192.15 62.33 193.439 62.4924 193.835 62.0559C193.987 61.6601 192.911 59.4677 191.52 57.3971C191.455 57.296 191.432 57.1732 191.457 57.0553C191.482 56.9374 191.552 56.8341 191.652 56.7678C191.702 56.7357 191.757 56.7136 191.815 56.7028C191.872 56.6921 191.932 56.6929 191.989 56.7051C192.047 56.7174 192.101 56.7409 192.15 56.7743C192.198 56.8077 192.24 56.8503 192.271 56.8997C193.723 59.0617 195.316 61.8123 194.494 62.6649C194.264 62.8714 193.994 63.0291 193.701 63.1285C193.408 63.228 193.098 63.2671 192.789 63.2435Z" fill="#231F20"/>
<path d="M184.375 55.8847C184.019 54.7328 183.432 53.6656 182.649 52.7484C182.247 52.3 181.719 51.9842 181.133 51.8429C180.548 51.7015 179.933 51.7412 179.371 51.9567C178.173 52.5454 177.777 54.0577 177.777 55.3874C177.815 56.8992 178.089 58.3958 178.589 59.8229C178.806 60.6879 179.243 61.4819 179.858 62.127C180.171 62.4456 180.58 62.6521 181.023 62.7145C181.465 62.7769 181.915 62.6917 182.304 62.4721" fill="white"/>
<path d="M181.401 63.203C180.714 63.1902 180.055 62.9308 179.543 62.4722C178.868 61.7732 178.388 60.9085 178.153 59.9651C177.634 58.4932 177.353 56.9479 177.321 55.3875C177.321 54.5044 177.493 52.3425 179.168 51.5406C179.817 51.283 180.529 51.2296 181.209 51.3873C181.889 51.5451 182.505 51.9067 182.974 52.4237C183.808 53.3844 184.434 54.5076 184.811 55.7224C184.838 55.8323 184.824 55.9481 184.771 56.0483C184.719 56.1485 184.632 56.2263 184.526 56.2672C184.421 56.3081 184.304 56.3094 184.198 56.2708C184.092 56.2322 184.003 56.1564 183.949 56.0574C183.61 54.9679 183.058 53.9569 182.325 53.0834C181.988 52.7053 181.547 52.4357 181.057 52.3092C180.568 52.1827 180.051 52.2048 179.574 52.3729C178.336 52.9819 178.244 54.8292 178.244 55.4179C178.28 56.8777 178.543 58.323 179.026 59.7012C179.217 60.4931 179.612 61.2211 180.173 61.8124C180.409 62.0577 180.719 62.2207 181.055 62.2773C181.391 62.3339 181.736 62.2813 182.04 62.1271C182.09 62.0921 182.145 62.0673 182.204 62.054C182.263 62.0407 182.324 62.0392 182.383 62.0496C182.443 62.0599 182.5 62.082 182.55 62.1145C182.601 62.1469 182.645 62.1892 182.68 62.2387C182.716 62.2889 182.741 62.3459 182.755 62.4062C182.768 62.4665 182.769 62.5289 182.758 62.5896C182.746 62.6503 182.723 62.7081 182.689 62.7595C182.654 62.8108 182.61 62.8547 182.558 62.8883C182.213 63.1073 181.809 63.217 181.401 63.203Z" fill="#231F20"/>
<path d="M180.457 86.2333C181.188 81.8688 179.939 77.7784 174.58 77.3927C166.541 76.8243 158.34 83.4827 151.235 86.6292C148.738 87.7152 138.04 94.0184 135.239 92.3538C133.747 91.4606 132.742 88.6896 131.95 87.2788C130.194 84.0308 128.56 80.7117 126.936 77.3927C123.586 70.511 120.927 63.8526 115.873 58.0062C114.858 56.8085 113.741 55.6412 112.584 54.5552C109.509 51.4974 105.688 49.2965 101.5 48.1708C101.377 48.1258 101.245 48.1071 101.114 48.1159C100.983 48.1246 100.855 48.1606 100.739 48.2216C100.262 48.5667 100.739 49.3076 101.246 49.6527L107.032 53.7736C105.432 52.5371 103.665 51.5325 101.784 50.7895C100.911 50.4444 98.2216 48.993 97.4401 49.9572C96.3337 51.3072 99.2163 52.0887 99.8964 52.5353C101.5 53.5503 103.033 54.7277 104.667 55.6818C102.576 54.4508 100.339 53.4859 98.0085 52.8094C96.9021 52.4846 95.2578 52.5556 95.1157 53.7026C95.0244 54.4537 95.7247 55.0322 96.3439 55.4687L101.287 58.8588C99.9167 57.9148 97.775 60.2087 97.4299 61.3455C97.1922 62.263 97.1894 63.2257 97.4218 64.1446C97.6542 65.0634 98.1143 65.909 98.7596 66.6032C99.0542 66.9369 99.4275 67.1916 99.8457 67.3442C100.055 67.4187 100.281 67.4373 100.5 67.3982C100.718 67.359 100.923 67.2634 101.094 67.1209C102.424 65.8826 100.607 63.3451 102.86 62.5128C103.335 62.3829 103.84 62.4297 104.282 62.6444C104.725 62.8591 105.074 63.2271 105.266 63.68C105.442 64.138 105.495 64.6343 105.418 65.119C105.341 65.6037 105.138 66.0596 104.829 66.4408C104.342 67.0701 103.601 67.6487 103.693 68.4708C103.734 68.7013 103.829 68.9188 103.97 69.1057C104.111 69.2926 104.294 69.4437 104.504 69.5467C104.809 69.6992 105.142 69.7889 105.482 69.8105C105.822 69.8322 106.164 69.7853 106.485 69.6726C106.807 69.56 107.103 69.3839 107.356 69.1548C107.608 68.9257 107.812 68.6482 107.955 68.3389C108.199 67.7299 108.443 66.8367 109.092 66.928C109.328 66.9904 109.537 67.1254 109.691 67.3137C110.574 68.1765 114.908 83.98 116.055 89.1971C117.628 96.3935 120.511 111.832 129.859 112.989C130.152 113.029 130.447 113.05 130.742 113.05C139.481 113.05 148.15 109.923 156.016 106.412C162.563 103.488 170.165 100.9 175.555 96.0281C178.152 93.3414 179.863 89.9228 180.457 86.2333V86.2333Z" fill="white"/>
<path d="M130.935 113.415H130.762C130.448 113.415 130.133 113.415 129.829 113.354C120.582 112.197 117.507 97.9159 115.852 90.2425L115.619 89.2275C114.401 83.6552 110.188 68.5317 109.376 67.5776C109.291 67.4692 109.179 67.3852 109.052 67.334C108.838 67.334 108.635 67.8415 108.503 68.2069L108.402 68.4505C108.23 68.8118 107.989 69.1358 107.692 69.4038C107.395 69.6718 107.048 69.8787 106.671 70.0125C106.294 70.1464 105.894 70.2046 105.494 70.1839C105.095 70.1632 104.703 70.0639 104.342 69.8918C104.073 69.7486 103.841 69.5447 103.665 69.2962C103.489 69.0478 103.373 68.7617 103.327 68.4607C103.331 68.0958 103.413 67.736 103.567 67.4052C103.721 67.0744 103.944 66.7802 104.22 66.5423L104.555 66.1363C104.815 65.8215 104.988 65.4438 105.056 65.0411C105.123 64.6384 105.084 64.2249 104.941 63.8424C104.791 63.4998 104.523 63.2222 104.186 63.0602C103.849 62.8982 103.465 62.8624 103.104 62.9594C102.19 63.2943 102.16 63.9236 102.18 64.9894C102.254 65.4243 102.23 65.8703 102.111 66.295C101.991 66.7197 101.779 67.1127 101.49 67.4457C101.26 67.6455 100.981 67.7816 100.682 67.8404C100.383 67.8991 100.073 67.8785 99.7846 67.7806C99.2743 67.6129 98.8161 67.3156 98.455 66.9179C97.7508 66.1652 97.2491 65.246 96.9971 64.2466C96.745 63.2471 96.7507 62.2 97.0137 61.2034C97.5324 59.9405 98.507 58.9188 99.744 58.3411L96.1103 55.8442C95.3897 55.3469 94.5675 54.6465 94.6893 53.6417C94.7032 53.4187 94.767 53.2018 94.8759 53.0068C94.9848 52.8118 95.1361 52.6437 95.3186 52.515C95.7496 52.2992 96.2191 52.171 96.7 52.1379C97.1809 52.1048 97.6635 52.1674 98.12 52.3222L99.135 52.6267H99.0437C98.12 52.2105 97.0137 51.703 96.7599 50.82C96.7202 50.6151 96.7289 50.4038 96.7853 50.2029C96.8417 50.0021 96.9442 49.8171 97.0847 49.6629C97.8358 48.7595 99.4294 49.267 100.739 49.8253C100.369 49.5174 100.135 49.0761 100.089 48.5971C100.089 48.4491 100.124 48.3031 100.193 48.1722C100.262 48.0412 100.363 47.9292 100.485 47.846C100.653 47.7459 100.841 47.6832 101.035 47.6622C101.229 47.6412 101.426 47.6623 101.612 47.7242C105.876 48.8408 109.77 51.0643 112.898 54.1695C113.984 55.1845 115.071 56.3314 116.228 57.6611C120.44 62.5432 122.977 67.9024 125.657 73.5864C126.215 74.7638 126.773 75.9513 127.352 77.149C128.905 80.326 130.57 83.706 132.366 87.025C132.549 87.36 132.742 87.766 132.945 88.2024C133.615 89.593 134.447 91.3388 135.482 91.9579C137.512 93.1455 145.013 89.2682 148.677 87.4006C149.692 86.8525 150.575 86.3856 151.093 86.2029C153.123 85.2995 155.295 84.1018 157.558 82.8331C163.121 79.7272 168.866 76.5197 174.681 76.9359C175.648 76.942 176.601 77.1565 177.477 77.5646C178.353 77.9727 179.13 78.5649 179.756 79.3009C181.056 80.9452 181.482 83.3609 180.995 86.3145C180.364 90.0812 178.592 93.5636 175.92 96.2919C171.525 100.281 165.77 102.717 160.167 105.082C158.814 105.643 157.514 106.202 156.269 106.757C148.799 110.066 140.009 113.415 130.935 113.415ZM109.011 66.3596H109.184C109.514 66.4357 109.812 66.6131 110.036 66.8671C111.051 67.8821 115.568 84.6195 116.522 88.984L116.755 89.999C118.359 97.4491 121.353 111.314 129.95 112.329C130.288 112.356 130.628 112.356 130.965 112.329C139.877 112.329 148.555 109 155.884 105.731C157.152 105.163 158.462 104.605 159.791 104.047C165.303 101.712 171.007 99.2963 175.29 95.4292C177.79 92.829 179.449 89.5361 180.051 85.9796V85.9796C180.365 84.112 180.426 81.5034 179.036 79.6967C178.463 79.0974 177.77 78.6264 177.002 78.315C176.234 78.0035 175.408 77.8587 174.58 77.89C169.048 77.4942 163.415 80.6406 157.975 83.6755C155.691 84.9544 153.529 86.1623 151.418 87.0758C150.93 87.2889 150.108 87.7152 149.063 88.2532C143.115 91.2576 137.228 94.13 134.995 92.7598C133.716 91.9884 132.823 90.1106 132.102 88.5983C131.899 88.172 131.717 87.7863 131.534 87.4615C129.737 84.1323 128.063 80.7421 126.51 77.555C125.931 76.3573 125.363 75.1597 124.804 73.9823C122.155 68.3592 119.648 63.0507 115.507 58.27C114.485 57.0737 113.401 55.9319 112.259 54.8495C109.248 51.8578 105.502 49.7118 101.398 48.6275C101.104 48.5565 101.033 48.6275 101.013 48.6275C101.089 48.9108 101.27 49.1541 101.52 49.3076L105.976 52.4744C106.433 52.7789 106.879 53.0936 107.316 53.4894C107.364 53.5254 107.404 53.5705 107.435 53.6221C107.465 53.6737 107.486 53.7308 107.494 53.7902C107.503 53.8496 107.499 53.9101 107.484 53.9682C107.469 54.0263 107.443 54.0809 107.407 54.1289C107.334 54.2252 107.227 54.2895 107.108 54.3084C106.989 54.3274 106.867 54.2994 106.768 54.2304L105.448 53.2966C104.24 52.4943 102.955 51.8143 101.612 51.2666L101.064 51.0331C100.292 50.688 98.2317 49.7644 97.7952 50.3023C97.6227 50.5155 97.643 50.6271 97.6531 50.6575C97.7546 51.094 98.8305 51.5711 99.4091 51.8248C99.6628 51.9324 99.9102 52.0544 100.15 52.1902C100.779 52.5962 101.398 53.0225 102.018 53.4488C102.931 54.0781 103.885 54.7379 104.86 55.3063C104.963 55.3695 105.038 55.4705 105.068 55.588C105.099 55.7055 105.082 55.8301 105.022 55.9356C104.959 56.0415 104.856 56.1187 104.737 56.1509C104.618 56.1831 104.491 56.1677 104.383 56.1081V56.1081C102.337 54.9104 100.152 53.9695 97.8764 53.3067C97.2139 53.0758 96.4884 53.1048 95.8464 53.3879C95.7705 53.4315 95.7067 53.4933 95.6606 53.5677C95.6146 53.6421 95.5877 53.7268 95.5825 53.8142C95.5115 54.3217 96.1306 54.8292 96.5975 55.1337L101.5 58.4731C101.551 58.5077 101.594 58.5519 101.628 58.6033C101.661 58.6547 101.684 58.7123 101.696 58.7726C101.707 58.8329 101.706 58.8949 101.694 58.955C101.681 59.015 101.656 59.072 101.622 59.1226C101.588 59.173 101.545 59.2162 101.494 59.2496C101.444 59.283 101.387 59.3061 101.328 59.3174C101.268 59.3288 101.207 59.3282 101.148 59.3156C101.088 59.3031 101.032 59.2789 100.982 59.2445V59.2445C100.849 59.1585 100.697 59.1078 100.539 59.0972C100.38 59.0865 100.222 59.1163 100.079 59.1836C99.0719 59.6459 98.27 60.4623 97.8257 61.4775C97.6167 62.3176 97.6205 63.1965 97.8367 64.0348C98.0529 64.873 98.4747 65.6442 99.064 66.2784C99.2971 66.5606 99.6022 66.7746 99.947 66.8975C100.078 66.9464 100.22 66.9609 100.359 66.9396C100.497 66.9183 100.628 66.8619 100.739 66.7758C101.165 66.3799 101.145 65.7608 101.135 65.0198C101.135 64.0048 101.135 62.665 102.667 62.0763C103.256 61.8868 103.893 61.9232 104.456 62.1784C105.019 62.4336 105.467 62.8893 105.712 63.4567C105.925 63.9912 105.992 64.5726 105.906 65.1415C105.821 65.7104 105.586 66.2464 105.225 66.6946L104.849 67.1412C104.484 67.5573 104.139 67.9531 104.18 68.349C104.213 68.5074 104.284 68.6554 104.386 68.7808C104.489 68.9061 104.62 69.0052 104.768 69.0696C105.016 69.1946 105.287 69.2675 105.564 69.2837C105.841 69.3 106.118 69.2593 106.379 69.1642C106.639 69.0691 106.878 68.9215 107.079 68.7307C107.28 68.5399 107.44 68.3098 107.549 68.0546L107.641 67.8212C107.844 67.2731 108.179 66.39 108.991 66.39L109.011 66.3596Z" fill="#231F20"/>
<path d="M154.412 122.55C154.412 122.55 143.602 134.568 109.427 188.83C109.427 188.83 169.312 209.627 202.391 208.886L203.223 132.426L154.412 122.55Z" fill="#231F20"/>
<path d="M200.655 209.373C167.566 209.373 109.864 189.479 109.305 189.276C109.182 189.224 109.084 189.125 109.031 189.002C109.002 188.942 108.986 188.876 108.986 188.809C108.986 188.742 109.002 188.676 109.031 188.616C142.841 134.933 153.955 122.398 154.067 122.276C154.117 122.218 154.183 122.174 154.256 122.149C154.329 122.124 154.407 122.119 154.483 122.134L203.294 132C203.395 132.024 203.484 132.082 203.548 132.162C203.612 132.243 203.648 132.343 203.65 132.446L202.817 208.906C202.817 209.023 202.772 209.135 202.69 209.218C202.608 209.302 202.497 209.35 202.381 209.353L200.655 209.373ZM110.107 188.606C116.106 190.636 171.007 208.977 201.954 208.46L202.766 132.812L154.584 123.058C153.092 124.803 141.42 138.932 110.107 188.606V188.606Z" fill="#231F20"/>
<path d="M181.939 257.799C181.939 257.941 197.732 257.799 197.732 257.799C197.732 257.799 199.559 254.256 200.899 254.135C202.239 254.013 217.423 258.438 217.332 260.915C217.24 263.391 180.67 263.767 180.67 263.767L181.939 257.799Z" fill="#231F20"/>
<path d="M180.67 264.214C180.604 264.214 180.539 264.199 180.479 264.171C180.42 264.143 180.367 264.102 180.325 264.051C180.283 263.999 180.253 263.938 180.238 263.873C180.222 263.809 180.22 263.741 180.234 263.676L181.512 257.707C181.534 257.602 181.594 257.508 181.679 257.442C181.765 257.377 181.872 257.345 181.979 257.352H182.091C182.893 257.433 191.571 257.352 197.468 257.352C197.986 256.398 199.498 253.81 200.868 253.688C202.239 253.566 214.338 257.027 217.108 259.687C217.299 259.837 217.455 260.026 217.567 260.241C217.679 260.456 217.744 260.693 217.758 260.935C217.758 261.666 217.677 262.894 198.96 263.716C189.896 264.112 180.741 264.214 180.69 264.214H180.67ZM182.314 258.245L181.228 263.32C197.874 263.138 215.891 262.214 216.916 260.834C216.8 260.658 216.668 260.495 216.52 260.346C213.962 257.91 202.005 254.48 200.95 254.591C200.188 254.662 198.849 256.621 198.138 258.012C198.101 258.085 198.044 258.146 197.974 258.189C197.905 258.232 197.824 258.255 197.742 258.255C187.42 258.337 183.715 258.377 182.304 258.245H182.314Z" fill="#231F20"/>
<path d="M86.204 181.42L75.242 192.879L77.272 196.544C77.272 196.544 64.8383 201.426 63.1331 199.477C61.4279 197.528 81.4031 177.644 81.4031 177.644L86.204 181.42Z" fill="#231F20"/>
<path d="M64.8485 200.329C64.4879 200.373 64.1221 200.344 63.7732 200.243C63.4243 200.142 63.0995 199.971 62.8185 199.741C62.3617 199.213 61.4888 198.218 71.3343 187.5C76.0642 182.333 81.0783 177.35 81.1291 177.299C81.2095 177.226 81.3145 177.185 81.4234 177.185C81.5323 177.185 81.6373 177.226 81.7178 177.299L86.468 181.075C86.5169 181.112 86.5575 181.16 86.5872 181.214C86.6169 181.268 86.6351 181.328 86.6405 181.389C86.6445 181.452 86.6358 181.515 86.6148 181.574C86.5939 181.634 86.5612 181.688 86.5187 181.735L75.7902 192.92L77.6984 196.29C77.7235 196.347 77.7365 196.409 77.7365 196.472C77.7365 196.535 77.7235 196.597 77.6984 196.655C77.6784 196.716 77.6453 196.773 77.6015 196.82C77.5577 196.867 77.5042 196.904 77.4446 196.929C75.7699 197.589 68.5837 200.329 64.8485 200.329ZM81.4843 178.213C72.2174 187.459 63.0215 197.751 63.5188 199.172C64.5338 200.299 71.6388 198.157 76.7138 196.28L74.897 193.072C74.8506 192.988 74.8324 192.892 74.8452 192.796C74.858 192.701 74.9011 192.613 74.968 192.544L85.5443 181.42L81.4843 178.213Z" fill="#231F20"/>
<path d="M192.322 66.725C192.073 66.7261 191.825 66.7023 191.581 66.654C189.896 66.319 188.536 64.8574 187.521 62.2996C187.5 62.2443 187.49 62.1853 187.491 62.1261C187.493 62.0668 187.506 62.0084 187.53 61.9542C187.554 61.9 187.588 61.8511 187.631 61.8102C187.674 61.7693 187.725 61.7373 187.78 61.716C187.835 61.6947 187.894 61.6845 187.954 61.6859C188.013 61.6874 188.071 61.7005 188.125 61.7246C188.18 61.7486 188.229 61.7831 188.269 61.826C188.31 61.8689 188.342 61.9195 188.364 61.9748C189.257 64.2281 190.394 65.507 191.764 65.7709C193.794 66.1769 195.824 64.1672 195.824 64.1368C195.911 64.0693 196.019 64.0355 196.129 64.0415C196.239 64.0475 196.343 64.0929 196.422 64.1695C196.501 64.246 196.55 64.3485 196.559 64.4581C196.569 64.5677 196.538 64.6771 196.473 64.7661C195.37 65.8964 193.896 66.5918 192.322 66.725Z" fill="#231F20"/>
<path d="M190.485 55.0729C190.391 55.072 190.3 55.0423 190.224 54.9878C190.148 54.9334 190.09 54.8568 190.059 54.7684C189.896 54.2812 189.673 54.0173 189.409 53.9564C188.83 53.8447 187.968 54.6364 187.714 54.9206C187.63 55.0037 187.517 55.0503 187.399 55.0503C187.281 55.0503 187.168 55.0037 187.085 54.9206C187.001 54.8353 186.954 54.7205 186.954 54.6009C186.954 54.4814 187.001 54.3666 187.085 54.2812C187.217 54.129 188.435 52.7993 189.622 53.0429C189.95 53.1302 190.248 53.3061 190.482 53.5514C190.717 53.7967 190.879 54.1019 190.952 54.4334C190.971 54.4894 190.979 54.5486 190.975 54.6076C190.971 54.6666 190.955 54.7242 190.928 54.777C190.902 54.8299 190.865 54.877 190.821 54.9156C190.776 54.9542 190.724 54.9835 190.668 55.0018C190.615 55.0438 190.552 55.0686 190.485 55.0729V55.0729Z" fill="#231F20"/>
<path d="M197.62 56.1689C197.529 56.1696 197.44 56.1416 197.365 56.0888C197.29 56.036 197.234 55.961 197.204 55.8746C197.082 55.5599 196.646 54.687 196.017 54.484C195.387 54.281 195.002 55.2656 195.002 55.2757C194.957 55.3868 194.87 55.4757 194.759 55.5232C194.649 55.5707 194.525 55.5729 194.413 55.5295C194.304 55.4824 194.217 55.3945 194.172 55.2846C194.126 55.1746 194.125 55.0513 194.169 54.9408C194.413 54.3318 195.184 53.2762 196.25 53.6314C197.062 54.021 197.689 54.7134 197.996 55.5599C198.035 55.673 198.029 55.797 197.977 55.9052C197.926 56.0134 197.834 56.0972 197.722 56.1385C197.69 56.153 197.655 56.1632 197.62 56.1689V56.1689Z" fill="#231F20"/>
<path d="M170.682 120.408L136.791 116.906C136.791 116.906 123.627 139.805 126.063 145.793C128.499 151.782 143.379 157.628 153.864 154.705C164.349 151.782 170.682 120.408 170.682 120.408Z" fill="white"/>
<path d="M147.703 155.954C138.152 155.954 127.748 151.132 125.637 145.966C123.14 139.876 135.848 117.627 136.396 116.683C136.439 116.605 136.504 116.541 136.584 116.499C136.663 116.458 136.753 116.441 136.842 116.45L170.733 119.952C170.861 119.967 170.978 120.033 171.058 120.134C171.131 120.241 171.16 120.372 171.139 120.5C170.875 121.789 164.623 152.178 153.986 155.152C151.937 155.7 149.824 155.969 147.703 155.954V155.954ZM137.045 117.384C135.604 119.931 124.307 140.231 126.499 145.601C128.895 151.488 143.663 157.05 153.732 154.238C163.11 151.61 169.251 124.803 170.124 120.794L137.045 117.384Z" fill="#231F20"/>
<path d="M145.054 133.055C144.551 133.058 144.049 133.024 143.551 132.954C139.745 132.416 137.289 129.422 136.446 124.316C136.077 121.842 136.036 119.33 136.325 116.846C136.332 116.786 136.352 116.727 136.382 116.675C136.412 116.622 136.452 116.576 136.501 116.539C136.549 116.502 136.604 116.476 136.662 116.46C136.721 116.445 136.782 116.441 136.842 116.45C136.964 116.47 137.074 116.536 137.15 116.634C137.225 116.732 137.26 116.855 137.248 116.978C137.248 117.11 135.462 130.873 143.673 132.03C152.149 133.228 165.851 122.317 166.003 122.215C166.049 122.166 166.105 122.128 166.167 122.102C166.228 122.076 166.295 122.064 166.362 122.067C166.429 122.069 166.495 122.086 166.554 122.116C166.614 122.146 166.667 122.189 166.709 122.241C166.751 122.293 166.781 122.354 166.797 122.419C166.814 122.484 166.816 122.552 166.804 122.617C166.792 122.683 166.766 122.746 166.728 122.801C166.689 122.856 166.64 122.902 166.582 122.936C166.044 123.372 153.874 133.055 145.054 133.055Z" fill="#231F20"/>
<path d="M145.571 125.849C145.227 125.849 144.896 125.986 144.653 126.229C144.409 126.473 144.272 126.803 144.272 127.148C144.272 127.492 144.409 127.823 144.653 128.067C144.896 128.31 145.227 128.447 145.571 128.447C145.916 128.447 146.246 128.31 146.49 128.067C146.734 127.823 146.87 127.492 146.87 127.148C146.87 126.803 146.734 126.473 146.49 126.229C146.246 125.986 145.916 125.849 145.571 125.849Z" fill="#231F20"/>
<path d="M168.977 120.916C168.887 120.917 168.798 120.894 168.719 120.85C168.641 120.805 168.576 120.74 168.531 120.662C168.467 120.543 168.452 120.404 168.487 120.274C168.523 120.143 168.608 120.032 168.724 119.962C168.998 119.82 195.773 104.513 200.31 80.458C200.322 80.3913 200.347 80.3277 200.384 80.2707C200.42 80.2138 200.468 80.1645 200.524 80.1259C200.579 80.0872 200.642 80.0599 200.708 80.0455C200.774 80.0311 200.843 80.0299 200.909 80.0418C200.976 80.0538 201.039 80.0789 201.096 80.1154C201.153 80.152 201.203 80.1995 201.241 80.2551C201.28 80.3107 201.307 80.3734 201.322 80.4395C201.336 80.5057 201.337 80.574 201.325 80.6407C196.697 105.163 169.515 120.693 169.241 120.855C169.16 120.899 169.069 120.92 168.977 120.916Z" fill="#231F20"/>
</svg>
