<svg width="190" height="169" viewBox="0 0 190 169" fill="none" xmlns="http://www.w3.org/2000/svg">
<path d="M178.883 97.0763L145.815 52.4163C145.134 51.4957 144.247 50.7479 143.224 50.2331C142.202 49.7183 141.072 49.4509 139.928 49.4525H40.0719C38.9271 49.4509 37.7979 49.7183 36.7753 50.2331C35.7528 50.7479 34.8654 51.4957 34.1849 52.4163L1.11621 97.0763V151.501C1.11621 154.462 2.29252 157.302 4.38636 159.395C6.48021 161.489 9.32007 162.666 12.2812 162.666H167.739C170.7 162.666 173.54 161.489 175.633 159.395C177.727 157.302 178.904 154.462 178.904 151.501L178.883 97.0763Z" fill="#093F68"/>
<path d="M167.739 163.66H12.2611C9.03081 163.66 5.93278 162.377 3.64858 160.093C1.36439 157.809 0.0811465 154.711 0.0811465 151.48V97.0764C0.0782089 96.858 0.145838 96.6444 0.273991 96.4674L33.3427 51.8074C34.1211 50.7611 35.1328 49.9107 36.2975 49.3239C37.4622 48.7372 38.7477 48.4302 40.0518 48.4275H139.908C141.212 48.4302 142.497 48.7372 143.662 49.3239C144.827 49.9107 145.838 50.7611 146.617 51.8074L179.685 96.4674C179.814 96.6444 179.881 96.858 179.878 97.0764V151.501C179.873 154.721 178.593 157.807 176.318 160.086C174.043 162.365 170.959 163.65 167.739 163.66ZM2.13144 97.4114V151.501C2.13144 154.193 3.20082 156.774 5.10431 158.678C7.0078 160.581 9.5895 161.651 12.2814 161.651H167.739C170.431 161.651 173.012 160.581 174.916 158.678C176.819 156.774 177.889 154.193 177.889 151.501V97.4114L145.023 53.0051C144.434 52.2135 143.669 51.5702 142.788 51.1261C141.907 50.6821 140.935 50.4497 139.948 50.4473H40.0721C39.0856 50.4497 38.1132 50.6821 37.2322 51.1261C36.3512 51.5702 35.5859 52.2135 34.9971 53.0051L2.13144 97.4114Z" fill="#093F68"/>
<path d="M178.884 97.0764V151.501C178.884 154.462 177.707 157.302 175.613 159.396C173.52 161.489 170.68 162.666 167.719 162.666H12.2612C9.30005 162.666 6.46019 161.489 4.36634 159.396C2.2725 157.302 1.09619 154.462 1.09619 151.501V97.0764H49.2173L53.7442 119.406C54.1539 121.413 55.2446 123.217 56.8317 124.512C58.4188 125.807 60.4047 126.513 62.4529 126.511H118.116C120.191 126.51 122.2 125.784 123.798 124.459C125.395 123.134 126.48 121.293 126.865 119.254L131.047 97.0155L178.884 97.0764Z" fill="#7C3AED"/>
<path d="M167.729 163.66H12.2611C9.03072 163.66 5.93269 162.377 3.64849 160.093C1.3643 157.809 0.0810547 154.711 0.0810547 151.48V97.0764C0.0810547 96.8072 0.187991 96.549 0.378341 96.3587C0.56869 96.1683 0.82686 96.0614 1.09605 96.0614H49.2172C49.4547 96.0566 49.6863 96.1352 49.8717 96.2836C50.0572 96.432 50.1848 96.6407 50.2322 96.8734L54.7591 119.203C55.1193 120.985 56.0838 122.587 57.4895 123.74C58.8951 124.892 60.6556 125.523 62.4731 125.527H118.136C119.974 125.525 121.754 124.881 123.169 123.706C124.583 122.531 125.542 120.899 125.88 119.092L130.062 96.8531C130.107 96.6185 130.234 96.4074 130.42 96.257C130.605 96.1067 130.838 96.0266 131.077 96.0309H178.894C179.163 96.0309 179.421 96.1379 179.611 96.3282C179.802 96.5186 179.909 96.7767 179.909 97.0459V151.47C179.91 153.071 179.596 154.656 178.984 156.134C178.373 157.613 177.476 158.957 176.345 160.089C175.214 161.221 173.87 162.12 172.392 162.732C170.914 163.345 169.329 163.66 167.729 163.66V163.66ZM2.13135 98.0914V151.501C2.13135 154.193 3.20072 156.774 5.10422 158.678C7.00771 160.581 9.5894 161.651 12.2814 161.651H167.729C170.421 161.651 173.002 160.581 174.906 158.678C176.809 156.774 177.879 154.193 177.879 151.501V98.0914H131.909L127.849 119.498C127.428 121.775 126.223 123.834 124.443 125.317C122.664 126.8 120.422 127.614 118.105 127.618H62.4731C60.1876 127.614 57.9735 126.821 56.2053 125.373C54.4372 123.925 53.2235 121.91 52.7697 119.67L48.3849 98.0914H2.13135Z" fill="#093F68"/>
<path d="M40.1635 140.488H20.2289C19.9597 140.488 19.7015 140.381 19.5112 140.191C19.3208 140 19.2139 139.742 19.2139 139.473C19.2139 139.204 19.3208 138.946 19.5112 138.755C19.7015 138.565 19.9597 138.458 20.2289 138.458H40.1635C40.4327 138.458 40.6908 138.565 40.8812 138.755C41.0715 138.946 41.1785 139.204 41.1785 139.473C41.1785 139.742 41.0715 140 40.8812 140.191C40.6908 140.381 40.4327 140.488 40.1635 140.488Z" fill="#093F68"/>
<path d="M53.9674 36.0851C53.654 36.0835 53.3452 36.0094 53.0652 35.8685C52.7852 35.7276 52.5416 35.5238 52.3536 35.2731L38.5394 17.0031C38.2151 16.5724 38.0751 16.0304 38.1502 15.4965C38.2254 14.9626 38.5096 14.4804 38.9404 14.156C39.3711 13.8316 39.913 13.6916 40.4469 13.7668C40.9809 13.842 41.463 14.1262 41.7874 14.5569L55.5914 32.8269C55.9156 33.2564 56.0559 33.797 55.9817 34.3299C55.9075 34.8628 55.6247 35.3444 55.1956 35.6689C54.8427 35.9382 54.4113 36.0844 53.9674 36.0851Z" fill="#DFEAEF"/>
<path d="M119.374 36.0851C118.931 36.0807 118.5 35.9349 118.146 35.6689C117.717 35.3444 117.434 34.8628 117.36 34.3299C117.286 33.797 117.426 33.2564 117.75 32.8269L131.564 14.5569C131.895 14.1464 132.373 13.8807 132.896 13.8162C133.42 13.7516 133.948 13.8933 134.368 14.2112C134.789 14.5291 135.07 14.9982 135.151 15.5193C135.232 16.0404 135.107 16.5725 134.802 17.0031L120.998 35.2731C120.809 35.5252 120.564 35.7298 120.282 35.8708C120 36.0117 119.689 36.0851 119.374 36.0851Z" fill="#DFEAEF"/>
<path d="M88.2644 29.995C87.726 29.995 87.2097 29.7812 86.829 29.4005C86.4483 29.0198 86.2344 28.5034 86.2344 27.965V2.74228C86.2344 2.20389 86.4483 1.68755 86.829 1.30685C87.2097 0.926153 87.726 0.71228 88.2644 0.71228C88.8028 0.71228 89.3191 0.926153 89.6998 1.30685C90.0805 1.68755 90.2944 2.20389 90.2944 2.74228V27.965C90.2944 28.5034 90.0805 29.0198 89.6998 29.4005C89.3191 29.7812 88.8028 29.995 88.2644 29.995Z" fill="#DFEAEF"/>
<path d="M184.842 132.733H126.388C124.207 132.733 122.439 134.501 122.439 136.682V163.386C122.439 165.567 124.207 167.335 126.388 167.335H184.842C187.022 167.335 188.79 165.567 188.79 163.386V136.682C188.79 134.501 187.022 132.733 184.842 132.733Z" fill="#FFBC0E"/>
<path d="M184.842 168.36H126.388C125.072 168.357 123.811 167.833 122.881 166.903C121.951 165.973 121.427 164.712 121.424 163.396V136.682C121.427 135.366 121.951 134.105 122.881 133.175C123.811 132.245 125.072 131.721 126.388 131.718H184.842C186.157 131.721 187.418 132.245 188.348 133.175C189.278 134.105 189.802 135.366 189.805 136.682V163.396C189.802 164.712 189.278 165.973 188.348 166.903C187.418 167.833 186.157 168.357 184.842 168.36V168.36ZM126.388 133.748C125.61 133.748 124.864 134.057 124.313 134.607C123.763 135.158 123.454 135.904 123.454 136.682V163.396C123.454 164.174 123.763 164.92 124.313 165.471C124.864 166.021 125.61 166.33 126.388 166.33H184.842C185.619 166.327 186.363 166.017 186.913 165.468C187.462 164.918 187.772 164.174 187.775 163.396V136.682C187.772 135.904 187.462 135.16 186.913 134.61C186.363 134.061 185.619 133.751 184.842 133.748H126.388Z" fill="#093F68"/>
<path d="M132.437 143.167H140.212V145.502H134.954V147.633H139.918V149.958H134.954V152.292H140.496V154.617H132.437V143.167Z" fill="#093F68"/>
<path d="M142.211 146.72H144.546V147.786C144.628 147.619 144.738 147.468 144.871 147.339C145.014 147.178 145.182 147.041 145.368 146.933C145.576 146.809 145.797 146.71 146.028 146.639C146.292 146.564 146.565 146.527 146.84 146.527C147.347 146.518 147.849 146.633 148.301 146.862C148.736 147.101 149.076 147.48 149.266 147.938C149.491 147.485 149.843 147.107 150.281 146.852C150.72 146.649 151.196 146.538 151.68 146.528C152.164 146.517 152.645 146.607 153.092 146.791C153.432 146.961 153.725 147.212 153.945 147.522C154.166 147.851 154.321 148.22 154.402 148.608C154.494 149.045 154.538 149.491 154.534 149.938V154.576H152.108V149.998C152.115 149.669 152.034 149.343 151.874 149.054C151.785 148.918 151.661 148.809 151.514 148.739C151.367 148.67 151.204 148.642 151.042 148.659C150.801 148.651 150.561 148.7 150.342 148.801C150.158 148.883 150.001 149.012 149.885 149.176C149.769 149.349 149.687 149.542 149.641 149.745C149.591 149.968 149.567 150.196 149.57 150.425V154.576H147.144V150.425C147.144 150.283 147.144 150.11 147.144 149.907C147.134 149.706 147.093 149.507 147.023 149.318C146.964 149.136 146.855 148.974 146.708 148.852C146.523 148.717 146.297 148.649 146.068 148.659C145.807 148.649 145.548 148.709 145.317 148.831C145.129 148.934 144.974 149.089 144.871 149.278C144.765 149.477 144.697 149.694 144.668 149.917C144.652 150.167 144.652 150.418 144.668 150.668V154.576H142.242L142.211 146.72Z" fill="#093F68"/>
<path d="M156.503 146.72H158.736V147.735C158.847 147.578 158.977 147.435 159.122 147.309C159.283 147.15 159.468 147.016 159.67 146.913C159.886 146.792 160.114 146.694 160.35 146.619C160.611 146.545 160.88 146.507 161.152 146.507C161.694 146.502 162.231 146.602 162.735 146.801C163.192 146.999 163.606 147.286 163.953 147.644C164.296 148.018 164.562 148.456 164.735 148.933C164.922 149.457 165.015 150.01 165.009 150.567C165.011 151.101 164.929 151.632 164.765 152.14C164.605 152.622 164.361 153.072 164.044 153.47C163.744 153.858 163.363 154.176 162.928 154.404C162.463 154.64 161.947 154.759 161.426 154.749C160.942 154.756 160.461 154.677 160.005 154.515C159.572 154.366 159.196 154.086 158.929 153.713V153.713V158.24H156.503V146.72ZM158.736 150.648C158.711 151.176 158.893 151.693 159.243 152.089C159.43 152.276 159.654 152.422 159.901 152.516C160.147 152.611 160.411 152.652 160.675 152.638C160.938 152.654 161.203 152.613 161.45 152.519C161.697 152.424 161.92 152.278 162.106 152.089C162.434 151.681 162.612 151.172 162.612 150.648C162.612 150.124 162.434 149.616 162.106 149.207C161.92 149.018 161.697 148.872 161.45 148.777C161.203 148.683 160.938 148.642 160.675 148.659C160.411 148.644 160.147 148.686 159.901 148.78C159.654 148.875 159.43 149.02 159.243 149.207C159.065 149.408 158.928 149.642 158.841 149.897C158.754 150.151 158.718 150.42 158.736 150.689V150.648Z" fill="#093F68"/>
<path d="M171.819 148.75H169.678V151.369C169.661 151.565 169.661 151.762 169.678 151.957C169.689 152.122 169.738 152.281 169.82 152.424C169.903 152.555 170.023 152.657 170.165 152.719C170.361 152.799 170.572 152.837 170.784 152.83C170.916 152.83 171.088 152.83 171.302 152.83C171.476 152.814 171.642 152.747 171.779 152.638V154.668C171.507 154.766 171.224 154.831 170.936 154.86C170.65 154.897 170.362 154.914 170.073 154.911C169.694 154.916 169.315 154.872 168.947 154.779C168.622 154.705 168.315 154.567 168.043 154.373C167.78 154.183 167.57 153.928 167.434 153.632C167.278 153.288 167.202 152.914 167.211 152.536V148.75H165.658V146.72H167.211V144.396H169.637V146.72H171.779L171.819 148.75Z" fill="#093F68"/>
<path d="M177.574 155.855C177.412 156.271 177.249 156.647 177.097 156.971C176.966 157.279 176.773 157.556 176.529 157.783C176.277 158.019 175.975 158.192 175.646 158.291C175.189 158.413 174.717 158.468 174.245 158.453C173.628 158.457 173.014 158.361 172.428 158.169L172.753 156.139C173.107 156.299 173.491 156.382 173.879 156.383C174.106 156.39 174.333 156.359 174.549 156.291C174.711 156.24 174.858 156.15 174.976 156.028C175.092 155.909 175.188 155.771 175.26 155.622L175.503 155.053L175.676 154.596L172.215 146.72H174.834L176.864 151.907L178.599 146.72H181.086L177.574 155.855Z" fill="#093F68"/>
</svg>
