<svg width="185" height="230" viewBox="0 0 185 230" fill="none" xmlns="http://www.w3.org/2000/svg">
<path d="M155.163 179.168H154.93C153.856 179.111 152.849 178.63 152.13 177.83C151.411 177.031 151.038 175.979 151.093 174.905L156.787 68.1782C156.845 67.1014 157.329 66.0917 158.131 65.3713C158.933 64.6508 159.989 64.2786 161.066 64.3364C162.142 64.3943 163.152 64.8776 163.873 65.6799C164.593 66.4822 164.965 67.5379 164.907 68.6147L159.213 175.332C159.156 176.368 158.705 177.342 157.952 178.056C157.199 178.769 156.201 179.167 155.163 179.168V179.168Z" fill="#231F20"/>
<path d="M20.7776 140.233C18.7789 140.266 16.792 139.922 14.921 139.218C7.51153 136.315 5.10599 131.514 4.39549 128.053C1.79709 115.305 17.2048 99.7548 18.9709 98.0293C19.3482 97.6413 19.7994 97.3326 20.2977 97.1215C20.7961 96.9103 21.3317 96.801 21.8729 96.7998C22.4142 96.7987 22.9502 96.9058 23.4495 97.1148C23.9488 97.3238 24.4012 97.6306 24.7802 98.017C25.1592 98.4034 25.4571 98.8618 25.6563 99.365C25.8556 99.8682 25.9523 100.406 25.9406 100.947C25.9289 101.488 25.8092 102.022 25.5884 102.516C25.3676 103.01 25.0502 103.455 24.6549 103.825C19.2043 109.184 11.0437 120.065 12.3531 126.439C12.5256 127.271 13.0433 129.809 17.8848 131.707C26.624 135.138 44.356 121.161 53.4809 111.549C54.2327 110.819 55.2374 110.409 56.285 110.403C57.3326 110.396 58.342 110.796 59.1022 111.516C59.8624 112.237 60.3145 113.224 60.364 114.271C60.4135 115.317 60.0566 116.342 59.3679 117.132C56.8913 119.659 36.8856 140.233 20.7776 140.233Z" fill="#231F20"/>
<path d="M40.2351 53.5521C40.2351 53.5521 31.1001 49.1977 28.7554 56.8711C26.4108 64.5445 25.954 87.4328 23.8022 90.0616C21.5167 92.534 19.0612 94.8437 16.4536 96.9738L26.2991 116.533L48.1419 106.708C48.1419 106.708 40.5294 64.1182 40.2351 53.5521Z" fill="white"/>
<path d="M26.2483 117.03C26.1497 117.028 26.0533 117 25.9693 116.948C25.8854 116.897 25.8169 116.823 25.7713 116.736L15.9359 97.1868C15.8811 97.0813 15.8643 96.9601 15.8884 96.8436C15.9124 96.7272 15.9758 96.6226 16.0679 96.5473C18.6462 94.4312 21.0777 92.1422 23.3454 89.6961C24.3604 88.4578 25.0506 81.3325 25.7104 74.4711C26.3701 67.6097 27.0603 60.4539 28.2073 56.7187C28.4432 55.7762 28.8864 54.8981 29.5044 54.1484C30.1225 53.3987 30.8999 52.7961 31.7801 52.3847C35.4848 50.7607 40.2147 52.9835 40.4177 53.085C40.5028 53.1256 40.5752 53.1887 40.627 53.2674C40.6789 53.3461 40.7083 53.4375 40.7121 53.5316C41.047 63.9455 48.5377 106.19 48.6088 106.606C48.6304 106.723 48.6121 106.843 48.5569 106.948C48.5016 107.053 48.4127 107.136 48.3043 107.185L26.4615 117.03C26.3911 117.044 26.3187 117.044 26.2483 117.03V117.03ZM17.0524 97.0853L26.4818 115.822L47.5024 106.362C46.7412 102.038 40.1335 64.3008 39.6768 53.8666C38.6618 53.4403 34.9773 52.0903 32.1962 53.3185C31.4571 53.6708 30.8058 54.1834 30.2896 54.819C29.7734 55.4545 29.4054 56.1971 29.2121 56.9928C28.0956 60.6265 27.4156 67.701 26.7558 74.5421C25.9032 83.4538 25.2942 88.9754 24.1574 90.366C21.9564 92.7857 19.5818 95.0416 17.0524 97.1157V97.0853Z" fill="#231F20"/>
<path d="M89.97 201.57C88.9924 201.581 88.0435 201.239 87.2976 200.607C86.5518 199.975 86.0591 199.095 85.91 198.129L73.1312 114.584C72.9683 113.519 73.2351 112.434 73.8727 111.566C74.5104 110.698 75.4668 110.119 76.5314 109.956C77.5961 109.793 78.6819 110.06 79.5498 110.697C80.4178 111.335 80.997 112.291 81.1598 113.356L94.03 196.901C94.1108 197.428 94.0869 197.966 93.9597 198.484C93.8326 199.002 93.6046 199.489 93.2888 199.919C92.9731 200.349 92.5757 200.712 92.1195 200.989C91.6632 201.265 91.157 201.448 90.6298 201.529C90.4113 201.56 90.1907 201.573 89.97 201.57V201.57Z" fill="#231F20"/>
<path d="M114.107 201.57H113.64C113.11 201.509 112.597 201.345 112.131 201.086C111.664 200.827 111.254 200.479 110.922 200.061C110.59 199.644 110.344 199.165 110.197 198.652C110.05 198.14 110.006 197.603 110.067 197.073C113.041 171.302 117.619 129.19 117.456 124.125C117.244 123.205 117.36 122.239 117.783 121.395C118.206 120.55 118.91 119.88 119.775 119.499C120.639 119.118 121.609 119.05 122.518 119.307C123.427 119.564 124.218 120.13 124.754 120.907C125.931 122.603 126.287 123.11 122.196 161.396C120.258 179.585 118.136 197.824 118.136 198.007C118.015 198.99 117.538 199.895 116.796 200.551C116.054 201.207 115.097 201.57 114.107 201.57V201.57Z" fill="#231F20"/>
<path d="M100.364 229.045C136.257 229.045 165.354 225.587 165.354 221.321C165.354 217.055 136.257 213.597 100.364 213.597C64.4705 213.597 35.3733 217.055 35.3733 221.321C35.3733 225.587 64.4705 229.045 100.364 229.045Z" fill="#E6E7E8"/>
<path d="M98.6888 147.216C135.378 147.216 165.121 117.474 165.121 80.7845C165.121 44.0953 135.378 14.3528 98.6888 14.3528C61.9996 14.3528 32.2571 44.0953 32.2571 80.7845C32.2571 117.474 61.9996 147.216 98.6888 147.216Z" fill="#7C3AED"/>
<path d="M98.76 14.3324C115.837 14.3221 132.264 20.8796 144.64 32.6472C157.016 44.4148 164.392 60.4911 165.241 77.5473C166.09 94.6034 160.348 111.333 149.202 124.272C138.057 137.211 122.362 145.367 105.368 147.054C88.3746 148.74 71.3832 143.826 57.9125 133.329C44.4419 122.833 35.5238 107.558 33.0049 90.6676C30.486 73.7771 34.5593 56.5648 44.3813 42.5948C54.2033 28.6247 69.0216 18.967 85.768 15.6215C90.0459 14.7664 94.3975 14.3346 98.76 14.3324ZM98.76 13.3174C80.8586 13.2986 63.6828 20.3918 51.0112 33.0367C38.3397 45.6817 31.2103 62.8424 31.1914 80.7439C31.1726 98.6453 38.2659 115.821 50.9108 128.493C63.5557 141.164 80.7165 148.294 98.6179 148.312C107.482 148.322 116.261 146.585 124.453 143.202C132.646 139.818 140.092 134.854 146.367 128.593C152.641 122.332 157.621 114.896 161.021 106.711C164.422 98.5251 166.177 89.7499 166.186 80.886C166.196 72.0221 164.459 63.2431 161.076 55.0504C157.692 46.8576 152.728 39.4115 146.467 33.1372C140.206 26.8629 132.77 21.8832 124.585 18.4826C116.399 15.0819 107.624 13.3268 98.76 13.3174V13.3174Z" fill="#231F20"/>
<path d="M75.6722 81.4055C78.5289 80.8517 79.7792 74.9072 78.4649 68.1281C77.1506 61.349 73.7693 56.3025 70.9127 56.8563C68.056 57.4102 66.8057 63.3547 68.12 70.1337C69.4343 76.9128 72.8156 81.9593 75.6722 81.4055Z" fill="#231F20"/>
<path d="M118.569 73.1011C121.426 72.5472 122.676 66.6027 121.362 59.8236C120.048 53.0446 116.666 47.998 113.81 48.5519C110.953 49.1057 109.703 55.0502 111.017 61.8293C112.331 68.6084 115.713 73.6549 118.569 73.1011Z" fill="#231F20"/>
<path d="M70.5532 130.651C70.2008 130.651 69.8595 130.528 69.5874 130.304C69.3153 130.08 69.1293 129.769 69.0612 129.423C67.5082 121.598 70.0762 113.488 76.1662 106.565C82.2562 99.6432 91.0867 94.9234 101.135 92.9442C121.973 88.803 141.502 98.4455 144.679 114.432C144.757 114.836 144.671 115.254 144.441 115.594C144.211 115.935 143.854 116.17 143.451 116.249C143.047 116.327 142.628 116.241 142.288 116.011C141.947 115.78 141.712 115.424 141.634 115.02C138.792 100.689 120.867 92.122 101.673 95.9283C92.3047 97.7857 84.0527 102.282 78.4499 108.585C72.8471 114.888 70.6649 121.963 72.025 128.835C72.1026 129.23 72.0201 129.641 71.7955 129.975C71.571 130.31 71.2228 130.542 70.8273 130.621L70.5532 130.651Z" fill="#231F20"/>
<path d="M28.0509 115.924L17.9891 95.5925C17.0666 93.7286 14.8078 92.9653 12.9439 93.8878L11.9523 94.3785C10.0883 95.3009 9.3251 97.5597 10.2475 99.4237L20.3094 119.755C21.2318 121.619 23.4906 122.383 25.3546 121.46L26.3461 120.969C28.2101 120.047 28.9733 117.788 28.0509 115.924Z" fill="white"/>
<path d="M23.7008 122.379C22.8985 122.379 22.1122 122.155 21.4307 121.732C20.7492 121.308 20.1995 120.703 19.8438 119.984V119.984L9.78515 99.6838C9.53447 99.1786 9.38576 98.629 9.34753 98.0664C9.30929 97.5038 9.38227 96.9391 9.5623 96.4047C9.74232 95.8702 10.0259 95.3765 10.3967 94.9517C10.7676 94.5269 11.2186 94.1793 11.7238 93.9287L12.7388 93.4415C13.2418 93.1901 13.7896 93.0409 14.3506 93.0026C14.9116 92.9642 15.4746 93.0375 16.0071 93.2182C17.0862 93.5828 17.9768 94.3602 18.4837 95.3802L28.5423 115.68C28.793 116.185 28.9417 116.735 28.98 117.298C29.0182 117.86 28.9452 118.425 28.7652 118.959C28.5852 119.494 28.3016 119.987 27.9308 120.412C27.5599 120.837 27.1089 121.185 26.6037 121.435L25.5887 121.922C25.0016 122.214 24.3564 122.37 23.7008 122.379V122.379ZM20.7877 119.527C21.1714 120.296 21.8439 120.881 22.6581 121.155C23.4722 121.429 24.3617 121.369 25.1319 120.989L26.1469 120.501C26.9173 120.12 27.5048 119.448 27.7807 118.634C28.0566 117.819 27.9983 116.929 27.6187 116.157L17.5601 95.8572C17.1733 95.0868 16.4987 94.4998 15.6823 94.2231C15.2784 94.0875 14.8518 94.033 14.4268 94.0626C14.0018 94.0922 13.5869 94.2054 13.2057 94.3956L12.1907 94.8828C11.8083 95.0707 11.4668 95.3325 11.1861 95.6531C10.9053 95.9736 10.6908 96.3466 10.5549 96.7505C10.419 97.1543 10.3645 97.5811 10.3944 98.0062C10.4243 98.4312 10.538 98.8462 10.7291 99.227L20.7877 119.527Z" fill="#231F20"/>
<path d="M54.827 91.3896C59.2038 90.5214 62.3045 87.5621 61.7526 84.7798C61.2007 81.9976 57.2052 80.4459 52.8283 81.3142C48.4515 82.1824 45.3507 85.1417 45.9026 87.924C46.4546 90.7062 50.4501 92.2579 54.827 91.3896Z" fill="white"/>
<path d="M145.316 73.8442C149.693 72.976 152.794 70.0167 152.242 67.2344C151.69 64.4522 147.694 62.9005 143.318 63.7688C138.941 64.637 135.84 67.5963 136.392 70.3786C136.944 73.1608 140.939 74.7125 145.316 73.8442Z" fill="white"/>
<path d="M60.8496 63.6513C60.8496 63.6513 74.7145 57.5613 76.4502 48.2842Z" fill="#7C3AED"/>
<path d="M60.8498 65.1738C60.4822 65.2007 60.1172 65.0933 59.8228 64.8715C59.5283 64.6497 59.3243 64.3285 59.2487 63.9677C59.1731 63.6069 59.2309 63.2309 59.4115 62.9095C59.5921 62.5882 59.8832 62.3432 60.2307 62.2202C60.3626 62.1593 73.4257 56.3027 74.9482 47.9594C74.9855 47.7595 75.0618 47.5689 75.1728 47.3984C75.2838 47.228 75.4273 47.0811 75.5951 46.9661C75.7628 46.8511 75.9516 46.7703 76.1506 46.7283C76.3496 46.6862 76.5549 46.6838 76.7549 46.7211C76.9548 46.7584 77.1455 46.8348 77.3159 46.9458C77.4863 47.0568 77.6332 47.2002 77.7482 47.368C77.8632 47.5358 77.944 47.7245 77.9861 47.9235C78.0281 48.1225 78.0305 48.3279 77.9932 48.5278C76.1357 58.4342 62.1084 64.7678 61.5096 65.0013C61.3068 65.1111 61.0804 65.1703 60.8498 65.1738V65.1738Z" fill="#231F20"/>
<path d="M126.439 51.0552C126.439 51.0552 111.275 50.6898 106.139 42.8032Z" fill="#7C3AED"/>
<path d="M126.439 52.5675C125.789 52.5675 110.422 52.0803 104.921 43.6254C104.786 43.462 104.687 43.2723 104.63 43.0684C104.572 42.8645 104.558 42.6509 104.588 42.4412C104.618 42.2316 104.691 42.0305 104.803 41.8508C104.916 41.6711 105.064 41.5167 105.239 41.3976C105.414 41.2785 105.612 41.1973 105.82 41.159C106.029 41.1208 106.243 41.1265 106.449 41.1756C106.655 41.2248 106.848 41.3164 107.017 41.4446C107.185 41.5728 107.325 41.7348 107.428 41.9202C112.056 49.0252 126.327 49.4718 126.479 49.4819C126.883 49.4819 127.27 49.6423 127.556 49.9278C127.841 50.2134 128.002 50.6006 128.002 51.0044C128.002 51.4082 127.841 51.7954 127.556 52.081C127.27 52.3665 126.883 52.5269 126.479 52.5269L126.439 52.5675Z" fill="#231F20"/>
<path d="M27.1821 92.2438C27.1821 92.2438 26.8166 74.7554 30.8868 68.3812C34.9569 62.007 43.8078 59.642 41.8996 66.5034C39.9914 73.3648 34.7946 81.5762 34.7946 81.5762C34.7946 81.5762 38.6211 96.2429 33.8608 105.002" fill="white"/>
<path d="M33.8507 105.53C33.7624 105.531 33.6754 105.51 33.5969 105.469C33.4751 105.403 33.3844 105.291 33.3445 105.158C33.3046 105.025 33.3187 104.881 33.3838 104.759C37.9919 96.2836 34.3176 81.8503 34.277 81.7082C34.2587 81.6383 34.2546 81.5654 34.2651 81.4939C34.2755 81.4224 34.3003 81.3537 34.3379 81.292C34.3988 81.2108 39.5347 73.0604 41.3921 66.3614C41.7372 65.1434 41.8895 63.5803 40.7324 63.0626C38.7024 62.1593 33.9522 64.5648 31.3335 68.6654C27.3953 74.8265 27.6998 92.0612 27.6998 92.2337C27.7011 92.3017 27.6891 92.3693 27.6643 92.4326C27.6395 92.4959 27.6025 92.5537 27.5554 92.6028C27.5082 92.6518 27.4519 92.691 27.3896 92.7183C27.3273 92.7455 27.2603 92.7602 27.1923 92.7615C27.0557 92.7616 26.9245 92.7088 26.8261 92.6142C26.7276 92.5195 26.6697 92.3905 26.6645 92.254C26.6645 91.5334 26.3498 74.5321 30.4606 68.1072C33.2112 63.7934 38.4182 60.8804 41.1688 62.1085C42.0011 62.4739 43.2699 63.56 42.4173 66.6354C40.6512 72.9995 36.1649 80.3582 35.3123 81.6574C35.7995 83.6062 38.8242 96.8824 34.2973 105.256C34.2539 105.337 34.1897 105.406 34.1112 105.454C34.0327 105.502 33.9428 105.528 33.8507 105.53V105.53Z" fill="#231F20"/>
<path d="M165.354 158.077C165.354 158.077 162.583 173.698 162.309 178.559C162.035 183.421 154.798 202.402 145.44 203.549C136.081 204.696 150.139 194.18 149.926 187.309C149.713 180.437 144.394 186.517 142.395 193.652C140.395 200.788 136.589 193.317 138.335 186.74C140.08 180.163 141.004 180.072 141.573 174.641C142.141 169.211 141.197 151.784 141.197 151.784L165.354 158.077Z" fill="white"/>
<path d="M144.202 204.148C143.004 204.148 142.263 203.863 141.908 203.275C141.116 201.935 142.649 199.783 144.77 196.789C146.891 193.795 149.48 190.151 149.398 187.339C149.338 185.563 148.932 184.883 148.566 184.842C147.348 184.7 144.374 188.476 142.882 193.805C142.019 196.85 140.852 197.266 140 197.043C137.97 196.505 136.559 191.349 137.787 186.619C138.487 183.949 139.066 182.315 139.533 181.006C140.333 178.953 140.832 176.796 141.015 174.601C141.573 169.272 140.639 151.997 140.629 151.814C140.624 151.733 140.638 151.651 140.672 151.577C140.706 151.503 140.757 151.438 140.822 151.388C140.886 151.335 140.962 151.298 141.043 151.28C141.124 151.262 141.208 151.265 141.289 151.286L165.486 157.569C165.614 157.603 165.724 157.683 165.795 157.794C165.867 157.905 165.894 158.038 165.872 158.168C165.872 158.32 163.101 173.819 162.827 178.59C162.553 183.36 155.265 202.869 145.501 204.066C145.07 204.121 144.636 204.148 144.202 204.148V204.148ZM148.505 183.797H148.688C149.784 183.929 150.373 185.106 150.444 187.299C150.535 190.455 147.927 194.14 145.623 197.388C144.09 199.54 142.365 201.976 142.811 202.727C142.913 202.889 143.359 203.254 145.369 203.011C154.433 201.905 161.518 182.904 161.782 178.519C162.045 174.134 164.278 161.152 164.755 158.452L141.715 152.464C141.887 155.844 142.568 169.851 142.06 174.703C141.862 176.98 141.342 179.218 140.517 181.351C140.061 182.64 139.502 184.244 138.802 186.872C137.655 191.267 139.086 195.703 140.274 196.007C140.659 196.109 141.289 195.51 141.877 193.5C143.197 188.831 146.191 183.797 148.505 183.797V183.797Z" fill="#231F20"/>
<path d="M140.878 155.338L167.026 162.422C169.185 163.007 171.409 161.731 171.994 159.573L172.134 159.053C172.719 156.894 171.443 154.67 169.285 154.085L143.137 147.001C140.978 146.416 138.754 147.692 138.169 149.851L138.028 150.37C137.443 152.529 138.719 154.753 140.878 155.338Z" fill="white"/>
<path d="M168.125 163.101C167.721 163.098 167.318 163.043 166.927 162.939L140.761 155.834C139.59 155.515 138.594 154.745 137.991 153.693C137.387 152.64 137.226 151.392 137.543 150.221L137.685 149.703C138 148.538 138.762 147.544 139.805 146.937C140.849 146.331 142.09 146.161 143.258 146.465V146.465L169.414 153.57C169.993 153.727 170.536 153.996 171.011 154.362C171.487 154.728 171.885 155.185 172.184 155.705C172.483 156.225 172.676 156.799 172.753 157.394C172.83 157.989 172.789 158.594 172.632 159.173L172.49 159.701C172.226 160.668 171.652 161.522 170.856 162.133C170.061 162.743 169.087 163.076 168.085 163.081L168.125 163.101ZM142.101 147.389C141.326 147.391 140.574 147.647 139.96 148.118C139.345 148.59 138.903 149.25 138.7 149.997L138.558 150.515C138.437 150.962 138.404 151.428 138.463 151.887C138.522 152.346 138.671 152.789 138.901 153.19C139.131 153.592 139.437 153.944 139.804 154.227C140.17 154.51 140.588 154.718 141.035 154.839L167.191 161.944C167.638 162.065 168.104 162.098 168.563 162.039C169.022 161.98 169.465 161.832 169.867 161.602C170.268 161.372 170.62 161.065 170.903 160.699C171.186 160.332 171.394 159.914 171.515 159.467L171.657 158.939C171.783 158.488 171.817 158.017 171.758 157.552C171.699 157.087 171.548 156.639 171.313 156.234C171.079 155.828 170.766 155.474 170.393 155.191C170.02 154.907 169.594 154.702 169.14 154.585L142.984 147.48C142.681 147.411 142.37 147.38 142.06 147.389H142.101Z" fill="#231F20"/>
<path d="M100.364 184.233C100.364 184.233 71.7204 178.641 71.4869 181.432C71.2535 184.223 72.4207 207.081 72.4207 207.081C72.4207 207.081 45.0157 221.809 49.2381 223.676C53.4605 225.544 100.364 216.876 100.364 216.876V184.233Z" fill="white"/>
<path d="M51.6133 224.448C50.74 224.501 49.864 224.402 49.025 224.153C48.8143 224.076 48.6308 223.939 48.4972 223.758C48.3637 223.578 48.2861 223.362 48.2739 223.138C48.2739 222.489 48.1927 220.794 60.2915 213.425C65.4173 210.309 70.6141 207.467 71.8828 206.776C71.7306 203.853 70.746 184.04 70.9693 181.401C70.984 181.261 71.0277 181.126 71.0976 181.003C71.1675 180.881 71.2621 180.775 71.3753 180.691C74.0245 178.661 96.0804 182.873 100.465 183.736C100.586 183.758 100.695 183.822 100.774 183.916C100.852 184.011 100.893 184.131 100.892 184.254V216.896C100.891 217.018 100.849 217.137 100.771 217.231C100.693 217.326 100.585 217.39 100.465 217.414C96.1616 218.185 61.9257 224.448 51.6133 224.448ZM74.3696 181.148C73.0501 181.148 72.2178 181.269 71.9945 181.533C71.7813 184.213 72.9384 206.827 72.9486 207.061C72.9508 207.159 72.9266 207.256 72.8783 207.342C72.8301 207.427 72.7597 207.499 72.6745 207.548C61.1441 213.749 49.2585 221.26 49.3295 223.098C49.3295 223.098 49.3295 223.159 49.4513 223.199C52.7399 224.661 86.5191 218.885 99.8461 216.439V184.67C89.7164 182.701 79.0386 181.148 74.3696 181.148Z" fill="#231F20"/>
<path d="M103.51 184.233C103.51 184.233 132.154 178.641 132.387 181.432C132.62 184.223 131.453 207.081 131.453 207.081C131.453 207.081 158.858 221.809 154.636 223.676C150.413 225.544 103.51 216.876 103.51 216.876V184.233Z" fill="white"/>
<path d="M152.261 224.447C141.958 224.447 107.712 218.185 103.409 217.393C103.289 217.37 103.181 217.305 103.103 217.211C103.025 217.116 102.982 216.998 102.982 216.876V184.233C102.982 184.111 103.025 183.992 103.103 183.898C103.181 183.803 103.289 183.739 103.409 183.715C107.804 182.863 129.799 178.64 132.499 180.67C132.615 180.751 132.711 180.857 132.782 180.98C132.852 181.103 132.894 181.24 132.905 181.381C133.128 184.03 132.143 203.843 131.991 206.756C136.599 209.243 155.722 219.778 155.6 223.118C155.588 223.342 155.51 223.558 155.377 223.738C155.243 223.918 155.06 224.056 154.849 224.133C154.011 224.388 153.135 224.495 152.261 224.447V224.447ZM104.028 216.439C117.355 218.885 151.134 224.65 154.423 223.199C154.504 223.199 154.555 223.128 154.555 223.097C154.626 221.26 142.74 213.749 131.21 207.548C131.123 207.5 131.051 207.429 131.003 207.343C130.954 207.257 130.931 207.159 130.936 207.06C130.936 206.827 132.093 184.213 131.869 181.482C130.854 180.305 117 182.152 104.028 184.67V216.439Z" fill="#231F20"/>
<path d="M28.5726 7.84654C26.8979 4.97409 23.0206 3.96924 19.7929 4.80154C16.5652 5.63384 13.8957 7.84654 11.5714 10.2216C10.8131 10.8566 10.2999 11.7359 10.1199 12.7084C10.059 13.7234 10.9928 14.7384 11.9165 14.4136C7.46062 13.6219 3.79647 17.9153 1.83752 21.9855C0.822515 24.0155 0.0409702 26.35 0.95447 28.3698C1.86797 30.3897 4.34456 31.4148 6.61816 31.6584C10.9476 32.1188 15.2848 30.8614 18.6967 28.1567C20.0536 29.4775 21.7242 30.4315 23.5514 30.9289C25.3786 31.4264 27.3022 31.4509 29.1415 31.0002C30.9807 30.5496 32.6751 29.6385 34.0653 28.3527C35.4555 27.0669 36.4958 25.4486 37.0885 23.6501C36.2359 24.188 37.5757 25.2741 38.5704 25.3248C40.9962 25.4669 43.5033 25.5989 45.7667 24.7057C50.9026 22.6757 51.5116 10.313 48.0809 6.28344C44.4472 1.98999 30.9274 2.21329 28.5726 7.84654Z" fill="white"/>
<path d="M8.42496 32.2573C7.801 32.2589 7.17746 32.225 6.55735 32.1558C3.5631 31.8208 1.3504 30.5115 0.467353 28.5627C-0.547647 26.2688 0.396306 23.711 1.35041 21.7419C2.30451 19.7728 5.23785 14.5049 9.8561 13.835C9.66043 13.471 9.5691 13.0601 9.5922 12.6475C9.77346 11.5511 10.3382 10.5547 11.1858 9.8359C13.2158 7.71455 16.0781 5.15676 19.6509 4.26356C22.6147 3.53276 26.4412 4.26356 28.5118 6.83151C29.7399 4.93346 32.3384 3.56321 35.7995 3.02526C40.2757 2.32491 46.0612 3.08616 48.4667 5.90786C50.6287 8.44536 51.3797 14.2309 50.1719 19.1029C49.3802 22.2494 47.8882 24.4113 45.9495 25.1929C43.544 26.1368 40.8745 25.9846 38.5299 25.8526C37.9726 25.8022 37.441 25.5945 36.9972 25.2538C36.2165 26.8942 35.0626 28.3291 33.628 29.4438C32.1934 30.5584 30.5179 31.3219 28.7354 31.673C26.9529 32.0242 25.113 31.9534 23.3628 31.4661C21.6126 30.9789 20.0008 30.0889 18.6562 28.8672C15.7027 31.075 12.1124 32.2646 8.42496 32.2573V32.2573ZM10.8711 14.8196C7.2171 14.8196 4.0909 18.5142 2.3045 22.1986C1.4519 23.9647 0.579 26.2586 1.4316 28.1364C2.4466 30.3998 5.49161 30.9784 6.67916 31.1103C10.8732 31.5695 15.0782 30.3467 18.372 27.7101C18.4678 27.6272 18.5903 27.5816 18.7171 27.5816C18.8438 27.5816 18.9663 27.6272 19.0622 27.7101C20.3015 28.9354 21.8241 29.8359 23.495 30.3315C25.1659 30.8271 26.9332 30.9025 28.6403 30.5511C30.3473 30.1997 31.9411 29.4322 33.2803 28.3169C34.6196 27.2015 35.6627 25.7728 36.3172 24.1576C36.291 23.9571 36.3254 23.7533 36.4158 23.5725C36.5062 23.3917 36.6486 23.242 36.8247 23.1426C36.9116 23.079 37.0164 23.0448 37.1241 23.0448C37.2317 23.0448 37.3366 23.079 37.4235 23.1426C37.5083 23.2072 37.5707 23.2968 37.6016 23.3989C37.6326 23.5009 37.6306 23.6101 37.596 23.711C37.596 23.8531 37.5047 23.9952 37.4539 24.1373C37.7625 24.4545 38.1713 24.6553 38.611 24.7057C40.8542 24.8376 43.3917 24.9797 45.5841 24.117C47.198 23.4775 48.4769 21.5795 49.1772 18.7679C50.2937 14.2918 49.6238 8.79046 47.6852 6.52701C45.7465 4.26356 40.7832 3.35006 35.9721 4.06056C32.3993 4.61881 29.8821 6.09055 29.0599 8.03935C29.023 8.13163 28.9603 8.21132 28.8793 8.26892C28.7983 8.32651 28.7024 8.35957 28.6031 8.36415C28.5065 8.37065 28.4099 8.35042 28.3239 8.30566C28.238 8.2609 28.166 8.19335 28.116 8.1104C26.492 5.31915 22.7567 4.57821 19.9147 5.28871C16.5957 6.11086 13.9161 8.54686 11.947 10.5667C11.2846 11.1177 10.827 11.8757 10.6478 12.7185C10.6466 12.9146 10.6909 13.1083 10.7772 13.2844C10.8635 13.4606 10.9894 13.6143 11.1452 13.7335V13.7335C11.4192 13.7335 11.7034 13.7335 11.9978 13.835C12.1104 13.8548 12.2133 13.9113 12.2905 13.9958C12.3676 14.0803 12.4146 14.1879 12.4241 14.3019C12.4333 14.417 12.4045 14.5319 12.3422 14.6291C12.2799 14.7262 12.1874 14.8003 12.079 14.8399C11.6809 14.9819 11.2428 14.9599 10.861 14.779L10.8711 14.8196Z" fill="#D1D3D4"/>
<path d="M36.8957 24.1881C36.3214 24.1786 35.7484 24.1311 35.1803 24.046C33.0996 23.7415 30.4606 22.899 29.7095 20.5747C29.6677 20.4427 29.6793 20.2997 29.742 20.1763C29.8046 20.0529 29.9133 19.959 30.0444 19.9149C30.1764 19.8731 30.3194 19.8848 30.4428 19.9474C30.5662 20.0101 30.6601 20.1187 30.7042 20.2499C31.3132 22.1581 33.871 22.7975 35.3326 23.0107C36.4214 23.2292 37.5472 23.1769 38.611 22.8584C39.4655 22.4794 40.2121 21.8933 40.7831 21.1532C41.6675 20.0891 42.3549 18.8758 42.8131 17.5703C42.8589 17.4357 42.9562 17.3248 43.0838 17.262C43.2113 17.1991 43.3586 17.1896 43.4932 17.2353C43.6278 17.2811 43.7387 17.3784 43.8015 17.506C43.8643 17.6335 43.8739 17.7808 43.8281 17.9154C43.3324 19.343 42.579 20.6675 41.6053 21.8231C40.9253 22.7091 40.0311 23.4077 39.0069 23.8531C38.3303 24.0961 37.6142 24.2097 36.8957 24.1881V24.1881Z" fill="#D1D3D4"/>
<path d="M146.526 6.39509C144.843 6.02015 143.08 6.27656 141.574 7.11559C140.067 7.95463 138.922 9.31783 138.354 10.9462C137.787 12.5746 137.837 14.3546 138.496 15.9482C139.155 17.5418 140.376 18.8378 141.928 19.5901C142.734 19.8379 143.495 20.2149 144.181 20.7066C144.631 21.1981 145.014 21.7477 145.318 22.3407C147.449 25.7511 151.997 27.1112 155.935 26.3094C159.873 25.5075 163.243 22.8888 165.861 19.8337C165.531 20.1396 165.333 20.5635 165.313 21.0136C165.292 21.4637 165.449 21.904 165.75 22.2392C166.392 22.8964 167.222 23.3395 168.125 23.508C170.896 24.2489 173.971 24.523 176.529 23.2136C177.799 22.6129 178.823 21.5914 179.426 20.3224C180.029 19.0534 180.174 17.6149 179.838 16.2507C180.346 17.9864 182.538 17.2657 183.289 16.4842C184.304 15.4692 184.203 12.5358 184.03 11.2671C183.523 7.34919 179.858 3.24859 175.575 3.58354C174.724 3.75637 173.852 3.80424 172.987 3.72564C171.576 3.42114 170.683 2.04074 169.394 1.38099C168.619 1.04416 167.772 0.908478 166.931 0.986553C166.09 1.06463 165.282 1.35393 164.583 1.82759C163.18 2.77502 161.971 3.98063 161.02 5.38009C160.431 3.93879 158.574 3.59369 157.021 3.61399C152.961 3.66474 150.657 4.49704 147.886 7.12589C147.465 6.82622 147.008 6.58069 146.526 6.39509V6.39509Z" fill="white"/>
<path d="M153.661 27.091C151.941 27.1408 150.235 26.7592 148.699 25.9809C147.164 25.2026 145.848 24.0524 144.871 22.6351C144.78 22.5032 144.699 22.3611 144.617 22.219C144.411 21.7537 144.098 21.3428 143.706 21.0187C143.313 20.6946 142.85 20.4662 142.354 20.3514L141.735 20.0976C140.013 19.3234 138.643 17.932 137.896 16.1978C137.148 14.4635 137.078 12.5123 137.699 10.7288C138.319 8.94527 139.585 7.45891 141.247 6.56277C142.909 5.66663 144.847 5.42574 146.678 5.88761V5.88761C147.085 6.0215 147.466 6.22404 147.805 6.48646V6.48646C150.515 4.03016 152.88 3.17756 157.011 3.12681C158.919 3.12681 160.289 3.57341 161.071 4.48691C161.942 3.2619 163.033 2.20885 164.288 1.38101C165.065 0.859839 165.961 0.543709 166.892 0.462071C167.824 0.380432 168.761 0.535939 169.617 0.914105C170.177 1.22379 170.698 1.59856 171.17 2.03061C171.587 2.5449 172.146 2.92567 172.777 3.12589C173.409 3.32612 174.085 3.33702 174.722 3.15726L175.514 3.06591C180.153 2.69036 183.999 7.05486 184.548 11.1859C184.548 11.3585 185.086 15.4185 183.644 16.8395C183.252 17.2093 182.779 17.484 182.264 17.6424C181.748 17.8008 181.203 17.8386 180.67 17.753H180.559C180.522 18.992 180.146 20.1972 179.471 21.2371C178.796 22.277 177.849 23.1117 176.732 23.6501C174.408 24.8072 171.454 24.9189 167.962 23.9851C166.976 23.811 166.066 23.34 165.354 22.6351C165.137 22.3659 164.978 22.0549 164.887 21.7216C162.509 24.2764 159.43 26.0734 156.036 26.888C155.253 27.0358 154.458 27.1038 153.661 27.091V27.091ZM144.932 6.69961C143.564 6.70947 142.229 7.12839 141.101 7.90252C139.972 8.67665 139.101 9.77061 138.599 11.0438C138.121 12.5961 138.214 14.2681 138.862 15.7575C139.51 17.2468 140.669 18.4551 142.131 19.1638L142.73 19.3973C143.337 19.5559 143.902 19.8464 144.384 20.2481C144.867 20.6498 145.255 21.1529 145.521 21.7216L145.754 22.1073C147.652 25.1523 151.844 26.6748 155.833 25.8527C159.463 24.9354 162.704 22.8793 165.08 19.986C165.204 19.7692 165.374 19.5822 165.577 19.4379C165.682 19.3696 165.808 19.341 165.932 19.3571C166.057 19.3732 166.171 19.433 166.255 19.5258C166.34 19.6185 166.388 19.7382 166.392 19.8634C166.396 19.9887 166.356 20.1112 166.278 20.2093L165.943 20.5848C165.907 20.6727 165.883 20.7648 165.872 20.8589C165.826 21.2437 165.936 21.6307 166.176 21.9348C166.756 22.4679 167.479 22.8205 168.257 22.9498C171.495 23.8227 174.205 23.7313 176.285 22.696C177.449 22.1547 178.389 21.2263 178.944 20.0694C179.499 18.9125 179.636 17.5987 179.33 16.3523V16.3523C179.291 16.2177 179.307 16.0731 179.375 15.9503C179.443 15.8275 179.556 15.7366 179.691 15.6976C179.825 15.6585 179.97 15.6746 180.093 15.7422C180.216 15.8097 180.306 15.9233 180.345 16.0579V16.0579C180.376 16.2114 180.449 16.3531 180.557 16.4663C180.665 16.5796 180.803 16.6597 180.954 16.6974C181.311 16.7373 181.672 16.7009 182.013 16.5907C182.354 16.4804 182.668 16.2988 182.934 16.0579C183.675 15.317 183.725 12.8201 183.522 11.2874C183.045 7.61311 179.564 3.74596 175.626 4.06061L174.885 4.14181C174.101 4.34279 173.277 4.32204 172.505 4.08187C171.732 3.8417 171.042 3.39156 170.51 2.78171C170.104 2.3929 169.655 2.05231 169.17 1.76671C168.472 1.47581 167.713 1.3625 166.96 1.43689C166.207 1.51128 165.484 1.77106 164.857 2.19301C163.525 3.12249 162.378 4.29295 161.477 5.64401C161.42 5.71669 161.345 5.77326 161.26 5.80806C161.174 5.84287 161.081 5.8547 160.99 5.84238C160.899 5.83006 160.812 5.79401 160.739 5.73784C160.666 5.68167 160.609 5.60732 160.573 5.52221C160.045 4.24331 158.137 4.07076 157.072 4.09106C153.062 4.09106 150.921 4.95381 148.271 7.45071C148.188 7.52759 148.081 7.57588 147.968 7.58865C147.855 7.60142 147.741 7.578 147.642 7.52176L147.226 7.24771C146.986 7.06007 146.719 6.90953 146.434 6.80111V6.80111C145.94 6.70378 145.435 6.66967 144.932 6.69961V6.69961Z" fill="#D1D3D4"/>
<path d="M166.917 20.6661C166.578 20.6611 166.239 20.6374 165.902 20.595C164.257 20.3472 162.719 19.6304 161.472 18.5304C160.224 17.4304 159.32 15.994 158.868 14.3934C158.85 14.3274 158.845 14.2584 158.853 14.1904C158.861 14.1224 158.883 14.0568 158.917 13.9973C158.951 13.9378 158.997 13.8857 159.051 13.8439C159.105 13.8021 159.167 13.7716 159.234 13.7539C159.368 13.7199 159.511 13.7402 159.63 13.8105C159.75 13.8808 159.837 13.9954 159.873 14.1295C160.25 15.5439 161.037 16.8151 162.135 17.7827C163.233 18.7503 164.593 19.371 166.044 19.5664C167.494 19.7619 168.97 19.5233 170.285 18.8808C171.601 18.2384 172.696 17.2208 173.433 15.9565C173.468 15.8963 173.514 15.8438 173.57 15.8019C173.625 15.76 173.688 15.7296 173.755 15.7126C173.822 15.6955 173.892 15.6922 173.961 15.7027C174.029 15.7132 174.095 15.7374 174.154 15.7738C174.271 15.8454 174.355 15.9595 174.389 16.0921C174.423 16.2247 174.404 16.3653 174.337 16.4843C173.562 17.7583 172.472 18.8119 171.173 19.5441C169.874 20.2763 168.408 20.6627 166.917 20.6661Z" fill="#D1D3D4"/>
<path d="M145.622 12.008C145.495 11.2778 145.569 10.5265 145.838 9.83565C146.107 9.14478 146.559 8.54069 147.147 8.0889C147.735 7.63711 148.435 7.35486 149.172 7.27277C149.909 7.19068 150.654 7.31188 151.327 7.62323" fill="white"/>
<path d="M145.622 12.4851C145.5 12.487 145.38 12.4452 145.285 12.3671C145.19 12.289 145.126 12.1797 145.105 12.0588C144.957 11.2331 145.039 10.3826 145.342 9.60022C145.644 8.81787 146.156 8.13376 146.821 7.62259C147.487 7.11142 148.279 6.79285 149.113 6.70168C149.947 6.61051 150.79 6.75024 151.55 7.10562C151.668 7.17012 151.756 7.277 151.798 7.40452C151.84 7.53205 151.831 7.67065 151.774 7.79215C151.717 7.91365 151.616 8.00894 151.492 8.05864C151.367 8.10834 151.228 8.10872 151.103 8.05971C150.518 7.78469 149.868 7.67611 149.226 7.74589C148.583 7.81567 147.971 8.06111 147.459 8.4553C146.946 8.84948 146.552 9.37721 146.319 9.98061C146.087 10.584 146.025 11.2398 146.14 11.8761C146.164 12.0133 146.132 12.1543 146.052 12.2684C145.973 12.3825 145.851 12.4604 145.714 12.4851H145.622Z" fill="#D1D3D4"/>
<path d="M19.996 35.6371C19.9934 35.5034 19.9391 35.3758 19.8444 35.2812C19.7498 35.1865 19.6222 35.1322 19.4885 35.1296C19.3539 35.1296 19.2248 35.1831 19.1296 35.2783C19.0344 35.3735 18.981 35.5025 18.981 35.6371C19.1535 37.1698 19.3362 38.6821 19.5088 40.2351C19.5114 40.3689 19.5657 40.4965 19.6603 40.5911C19.7549 40.6857 19.8825 40.74 20.0163 40.7426C20.15 40.74 20.2776 40.6857 20.3722 40.5911C20.4669 40.4965 20.5212 40.3689 20.5238 40.2351C20.3512 38.7024 20.1685 37.1698 19.996 35.6371Z" fill="#D1D3D4"/>
<path d="M30.085 42.2653C30.0517 42.2073 30.0073 42.1564 29.9543 42.1156C29.9014 42.0748 29.8409 42.0448 29.7763 42.0274C29.7117 42.0099 29.6444 42.0054 29.5781 42.014C29.5117 42.0226 29.4478 42.0442 29.3898 42.0775C29.3318 42.1108 29.2809 42.1552 29.2401 42.2082C29.1993 42.2612 29.1693 42.3217 29.1519 42.3862C29.1344 42.4508 29.1299 42.5182 29.1385 42.5845C29.1471 42.6508 29.1687 42.7148 29.202 42.7728C29.3332 42.9644 29.4454 43.1683 29.537 43.3818V43.463V43.5848C29.537 43.6964 29.6182 43.8081 29.6486 43.9197C29.7115 44.1326 29.759 44.3497 29.7907 44.5693V44.6607C29.7907 44.6607 29.7907 44.752 29.7907 44.7926C29.7907 44.8332 29.7907 45.0464 29.7907 45.1682C29.7907 45.3028 29.8442 45.4318 29.9393 45.527C30.0345 45.6222 30.1636 45.6757 30.2982 45.6757C30.4328 45.6757 30.5619 45.6222 30.6571 45.527C30.7522 45.4318 30.8057 45.3028 30.8057 45.1682C30.831 44.1533 30.582 43.1505 30.085 42.2653V42.2653Z" fill="#D1D3D4"/>
<path d="M38.2051 38.1747C38.0731 37.4135 37.9513 36.6522 37.8194 35.891C37.7837 35.7622 37.6987 35.6526 37.5828 35.5861C37.4669 35.5196 37.3294 35.5015 37.2002 35.5357C37.0721 35.5758 36.964 35.6631 36.898 35.7801C36.832 35.897 36.8131 36.0346 36.845 36.165C36.9668 36.9263 37.0987 37.6875 37.2205 38.4488C37.2584 38.5784 37.3454 38.688 37.4629 38.7544C37.5805 38.8208 37.7193 38.8386 37.8498 38.804C37.978 38.764 38.086 38.6766 38.152 38.5597C38.218 38.4428 38.237 38.3051 38.2051 38.1747V38.1747Z" fill="#D1D3D4"/>
<path d="M155.549 35.5155L154.778 32.846C154.761 32.7794 154.73 32.7168 154.689 32.6619C154.647 32.6069 154.595 32.5607 154.536 32.5258C154.477 32.491 154.411 32.4681 154.343 32.4586C154.275 32.4491 154.205 32.4532 154.139 32.4705C154.072 32.4878 154.009 32.5181 153.954 32.5596C153.899 32.6011 153.853 32.653 153.818 32.7124C153.783 32.7718 153.761 32.8375 153.751 32.9057C153.742 32.9739 153.746 33.0433 153.763 33.1099L154.524 35.7794C154.559 35.914 154.646 36.0292 154.766 36.0996C154.886 36.17 155.029 36.1899 155.164 36.1549C155.298 36.1199 155.413 36.0329 155.484 35.913C155.554 35.7931 155.574 35.6501 155.539 35.5155H155.549Z" fill="#D1D3D4"/>
<path d="M166.095 38.5706C165.961 38.5732 165.834 38.6275 165.739 38.7221C165.644 38.8167 165.59 38.9443 165.587 39.0781V42.1231C165.587 42.2577 165.641 42.3867 165.736 42.4819C165.831 42.5771 165.96 42.6306 166.095 42.6306C166.229 42.628 166.356 42.5737 166.451 42.479C166.545 42.3844 166.6 42.2568 166.602 42.1231V39.0781C166.6 38.9443 166.545 38.8167 166.451 38.7221C166.356 38.6275 166.229 38.5732 166.095 38.5706Z" fill="#D1D3D4"/>
<path d="M176.174 39.0781C176.169 38.9451 176.114 38.8189 176.02 38.7248C175.926 38.6307 175.8 38.5756 175.667 38.5706C175.413 38.5706 175.118 38.804 175.159 39.0781L175.738 43.6659C175.738 43.8005 175.791 43.9295 175.886 44.0247C175.981 44.1199 176.111 44.1734 176.245 44.1734C176.38 44.1734 176.509 44.1199 176.604 44.0247C176.699 43.9295 176.753 43.8005 176.753 43.6659L176.174 39.0781Z" fill="#D1D3D4"/>
<path d="M171.424 61.4385C171.29 61.4411 171.163 61.4954 171.068 61.59C170.973 61.6846 170.919 61.8122 170.917 61.946V63.844C170.917 63.9786 170.97 64.1077 171.065 64.2029C171.16 64.2981 171.289 64.3515 171.424 64.3515C171.559 64.3515 171.688 64.2981 171.783 64.2029C171.878 64.1077 171.932 63.9786 171.932 63.844V61.946C171.932 61.8114 171.878 61.6823 171.783 61.5871C171.688 61.4919 171.559 61.4385 171.424 61.4385Z" fill="#D1D3D4"/>
<path d="M181.848 72.0858C181.462 70.8171 181.087 69.5483 180.701 68.2796C180.661 68.1514 180.574 68.0434 180.457 67.9774C180.34 67.9114 180.202 67.8924 180.072 67.9243C179.945 67.9621 179.838 68.048 179.773 68.1637C179.709 68.2793 179.692 68.4156 179.727 68.5435C180.102 69.8224 180.488 71.0911 180.874 72.3599C180.892 72.4265 180.923 72.489 180.965 72.5437C181.007 72.5983 181.059 72.6442 181.119 72.6786C181.179 72.713 181.245 72.7353 181.313 72.7441C181.382 72.753 181.451 72.7483 181.518 72.7303C181.585 72.7124 181.647 72.6814 181.702 72.6393C181.757 72.5971 181.802 72.5447 181.837 72.4848C181.871 72.425 181.894 72.3589 181.902 72.2905C181.911 72.222 181.907 72.1525 181.889 72.0858H181.848Z" fill="#D1D3D4"/>
<path d="M12.5865 47.4721C12.5839 47.3383 12.5296 47.2107 12.435 47.1161C12.3404 47.0215 12.2128 46.9672 12.079 46.9646C11.9444 46.9646 11.8154 47.0181 11.7202 47.1132C11.625 47.2084 11.5715 47.3375 11.5715 47.4721C11.6933 48.6089 11.8151 49.7558 11.9471 50.9028C11.9471 51.0374 12.0005 51.1665 12.0957 51.2617C12.1909 51.3568 12.32 51.4103 12.4546 51.4103C12.5884 51.4077 12.7159 51.3534 12.8106 51.2588C12.9052 51.1642 12.9595 51.0366 12.9621 50.9028C12.8301 49.7558 12.7083 48.6089 12.5865 47.4721Z" fill="#D1D3D4"/>
<path d="M17.5599 69.4368C17.1751 67.988 17.0717 66.4789 17.2554 64.9911C17.2554 64.8565 17.2019 64.7275 17.1067 64.6323C17.0116 64.5371 16.8825 64.4836 16.7479 64.4836C16.6133 64.4836 16.4842 64.5371 16.389 64.6323C16.2938 64.7275 16.2404 64.8565 16.2404 64.9911C16.0517 66.5714 16.1653 68.1731 16.5753 69.7109C16.6117 69.8414 16.6984 69.9522 16.8164 70.0188C16.9344 70.0855 17.0741 70.1025 17.2046 70.0661C17.3352 70.0298 17.446 69.9431 17.5126 69.8251C17.5792 69.707 17.5962 69.5674 17.5599 69.4368Z" fill="#D1D3D4"/>
<path d="M22.8176 51.9077C22.6838 51.9103 22.5562 51.9646 22.4616 52.0592C22.367 52.1539 22.3127 52.2814 22.3101 52.4152V54.699C22.3101 54.8336 22.3635 54.9626 22.4587 55.0578C22.5539 55.153 22.683 55.2065 22.8176 55.2065C22.9522 55.2065 23.0812 55.153 23.1764 55.0578C23.2716 54.9626 23.3251 54.8336 23.3251 54.699V52.4152C23.3225 52.2814 23.2682 52.1539 23.1735 52.0592C23.0789 51.9646 22.9513 51.9103 22.8176 51.9077V51.9077Z" fill="#D1D3D4"/>
</svg>
