<svg width="321" height="312" viewBox="0 0 321 312" fill="none" xmlns="http://www.w3.org/2000/svg">
<g clip-path="url(#clip0_367_9)">
<path fill-rule="evenodd" clip-rule="evenodd" d="M167.06 68.4343C180.979 61.4749 197.867 57.6852 213.326 56.3453L230.685 54.8354C249.713 53.1956 268.752 54.1955 287.79 54.1955H298.239V64.6446C298.239 111.011 298.239 157.397 298.239 203.773V209.103C298.239 256.979 259.092 296.125 211.196 296.125H35.761V54.1955H46.2001C65.2685 54.1955 84.237 52.9456 103.295 54.4255L120.664 55.7354C137.153 56.9753 152.251 60.9849 167.06 68.4343V68.4343Z" fill="#4D4C4B"/>
<path fill-rule="evenodd" clip-rule="evenodd" d="M46.2001 64.6446V183.825V203.773V209.103V285.696H122.774H134.813H211.196C253.333 285.696 287.79 251.219 287.79 209.103V203.773C287.79 157.667 287.79 112.691 287.79 64.6446C269.491 64.6446 250.153 64.1947 231.595 65.2446L214.226 66.7445C197.227 68.8043 180.029 72.774 167 80.2933C152.931 72.164 137.592 68.1244 119.874 66.1445L102.505 64.8246C83.567 63.9447 64.1486 64.6446 46.2001 64.6446V64.6446Z" fill="#5FB74E"/>
<path fill-rule="evenodd" clip-rule="evenodd" d="M67.8583 285.696H122.774H134.813H211.196C229.865 285.696 247.013 278.927 260.322 267.738C244.774 231.591 208.837 206.293 166.99 206.293C118.514 206.293 77.9674 240.25 67.8583 285.696V285.696Z" fill="#89C45F"/>
<path fill-rule="evenodd" clip-rule="evenodd" d="M167 285.696L212.096 285.026C230.505 285.026 247.273 278.527 260.332 267.748C277.141 253.849 287.79 232.811 287.79 209.103V203.773C287.79 157.667 287.79 112.691 287.79 64.6446C269.491 64.6446 250.153 64.1947 231.595 65.2446L214.226 66.7444C197.227 68.8043 180.029 72.7739 167 80.2933V285.696V285.696Z" fill="#4A9E4B"/>
<path fill-rule="evenodd" clip-rule="evenodd" d="M167 285.696H211.476C230.145 285.696 247.013 278.927 260.332 267.748C244.954 232.001 208.237 206.863 167 206.313V285.696Z" fill="#5FB74E"/>
<path fill-rule="evenodd" clip-rule="evenodd" d="M231.595 58.0052C228.275 25.4079 200.717 0 167.27 0C133.833 0 106.295 25.1879 102.505 57.6052L119.874 58.9251C122.944 35.517 142.892 17.4085 167.2 17.4085C191.498 17.4085 211.626 35.817 214.226 59.505L231.595 58.0052Z" fill="#4D4C4B"/>
<path fill-rule="evenodd" clip-rule="evenodd" d="M195.248 216.482C187.678 224.491 180.119 232.491 172.56 240.51L166.99 246.409L161.431 240.51C153.871 232.511 146.312 224.491 138.742 216.482L134.833 212.322L137.693 207.393C143.762 196.924 155.111 191.294 166.99 191.294C178.889 191.294 190.228 196.924 196.298 207.393L199.167 212.322L195.248 216.482Z" fill="#4D4C4B"/>
<path fill-rule="evenodd" clip-rule="evenodd" d="M189.678 211.232C182.129 219.242 174.549 227.241 166.99 235.26C159.431 227.241 151.871 219.242 144.302 211.232C149.081 203.003 158.051 198.933 166.99 198.943C175.939 198.933 184.899 203.003 189.678 211.232Z" fill="#FDF8B4"/>
<path fill-rule="evenodd" clip-rule="evenodd" d="M189.678 211.232C182.129 219.242 174.549 227.241 166.99 235.26V198.943C175.939 198.933 184.899 203.003 189.678 211.232Z" fill="#FCD066"/>
<path fill-rule="evenodd" clip-rule="evenodd" d="M110.305 94.7721C144.192 94.7721 171.68 122.27 171.68 156.137C171.68 190.024 144.192 217.512 110.305 217.512C76.4175 217.512 48.9398 190.024 48.9398 156.137C48.9398 122.27 76.4175 94.7721 110.305 94.7721Z" fill="#4D4C4B"/>
<path fill-rule="evenodd" clip-rule="evenodd" d="M110.305 105.211C138.432 105.211 161.241 128.019 161.241 156.137C161.241 184.265 138.432 207.073 110.305 207.073C82.1671 207.073 59.379 184.265 59.379 156.137C59.379 128.019 82.1671 105.211 110.305 105.211Z" fill="#EEEFEE"/>
<path fill-rule="evenodd" clip-rule="evenodd" d="M110.305 105.211C133.513 105.211 153.111 120.75 159.241 141.988C153.111 163.216 133.513 178.755 110.305 178.755C87.0866 178.755 67.5183 163.216 61.3788 141.988C67.5183 120.75 87.0866 105.211 110.305 105.211Z" fill="#FEFEFE"/>
<path fill-rule="evenodd" clip-rule="evenodd" d="M223.685 94.7721C257.572 94.7721 285.05 122.27 285.05 156.137C285.05 190.024 257.572 217.512 223.685 217.512C189.798 217.512 162.31 190.044 162.31 156.137C162.31 122.27 189.798 94.7721 223.685 94.7721Z" fill="#4D4C4B"/>
<path fill-rule="evenodd" clip-rule="evenodd" d="M223.685 105.211C251.803 105.211 274.611 128.019 274.611 156.137C274.611 184.265 251.803 207.073 223.685 207.073C195.558 207.073 172.76 184.265 172.76 156.137C172.76 128.019 195.558 105.211 223.685 105.211Z" fill="#EEEFEE"/>
<path fill-rule="evenodd" clip-rule="evenodd" d="M223.685 105.211C246.893 105.211 266.482 120.75 272.611 141.988C266.482 163.216 246.893 178.755 223.685 178.755C200.467 178.755 180.879 163.216 174.739 141.988C180.879 120.75 200.467 105.211 223.685 105.211Z" fill="#FEFEFE"/>
<path fill-rule="evenodd" clip-rule="evenodd" d="M116.704 124.47C134.873 124.47 149.602 139.198 149.602 157.337C149.602 175.515 134.873 190.244 116.704 190.244C98.5358 190.244 83.807 175.515 83.807 157.337C83.807 151.287 85.4569 145.618 88.3166 140.738C90.6664 146.548 96.346 150.627 103.005 150.627C111.755 150.627 118.854 143.548 118.854 134.799C118.854 130.859 117.414 127.259 115.044 124.5C115.594 124.47 116.154 124.47 116.704 124.47V124.47Z" fill="#4D4C4B"/>
<path fill-rule="evenodd" clip-rule="evenodd" d="M217.276 124.47C235.454 124.47 250.173 139.198 250.173 157.337C250.173 175.515 235.454 190.244 217.266 190.244C199.117 190.244 184.389 175.515 184.389 157.337C184.389 151.287 186.029 145.618 188.878 140.738C191.238 146.548 196.928 150.627 203.587 150.627C212.326 150.627 219.416 143.548 219.416 134.799C219.416 130.859 217.996 127.259 215.626 124.5C216.176 124.47 216.716 124.47 217.276 124.47V124.47Z" fill="#4D4C4B"/>
</g>
<defs>
<clipPath id="clip0_367_9">
<rect width="321" height="312" fill="white"/>
</clipPath>
</defs>
</svg>
